<?xml version="1.0" encoding="UTF-8"?>
<svg id="Layer_1" data-name="Layer 1" xmlns="http://www.w3.org/2000/svg" viewBox="0 0 500 500">
  <defs>
    <style>
      .cls-1 {
        fill: #fff;
        stroke: #fff;
      }

      .cls-1, .cls-2, .cls-3 {
        stroke-miterlimit: 10;
        stroke-width: 6px;
      }

      .cls-2 {
        fill: #ce215d;
        stroke: #ce215d;
      }

      .cls-3 {
        fill: #44a3b4;
        stroke: #44a3b4;
      }
    </style>
  </defs>
  <path class="cls-2" d="M194.57,41.86c3.93-9.65,6.12-17.17,13.86-25.13,8.61-8.86,16.91-3.73,24.03,3.77,6.23,6.59,9.35,14.01,9.36,22.28.22,125.87.44,207.67.66,245.41.05,9.31-.02,14.88-.2,16.7-1.15,11.31-5.27,21.43-12.36,30.35-16.91,21.31-47.15,21.24-70.38,12.32-21.29-8.16-32.77-25.77-29.42-49.06.15-1.04-.27-2.08-1.11-2.73-5.54-4.22-10.26-8.11-13.31-13.56-7.25-12.97-1.9-27.35,7.35-37.7.49-.53.45-1.36-.08-1.85-.08-.08-.18-.14-.28-.19-25.24-13.26-25.74-38.98-12.93-61.72,3.91-6.92,8.96-14.06,15.16-21.4.7-.83.87-1.98.45-2.98-2.65-6.21-4.99-12.7-4.39-18.96.99-10.92,8.7-19.8,18.08-24.9,1.18-.64,1.88-1.9,1.81-3.25-1.11-21.2.41-50.54,21.4-62.69,9.22-5.33,19.71-5.24,30.53-3.69.75.1,1.48-.32,1.76-1.02ZM139.51,271.64c.14-.31.5-.44.81-.31.23.1.37.33.36.58-.37,7.69-1,17.08-1.9,28.18-1.18,14.4,1.27,26.58,13.85,34.26,11.26,6.86,24.06,10.14,38.38,9.83,25.18-.56,39.57-15.98,42.49-39.68.75-6.1,1.12-12.05,1.11-17.85-.11-79.7-.41-159.81-.91-240.35-.04-5.35-.51-8.97-1.43-10.89-3-6.19-7.4-11.07-13.18-14.64-.79-.49-1.8-.41-2.49.2-9.34,8.2-12.54,19.96-16.47,31.82-.18.54-.74.86-1.29.74-5.63-1.2-13.08-3.48-18.87-3.09-32.93,2.24-31.55,42.37-29.49,65.97.05.59-.28,1.13-.83,1.35-10.91,4.27-21.15,11.12-20.05,23.73.52,5.94,3.62,10.87,6.78,16.04.42.68.34,1.56-.2,2.15-15.34,16.7-40.77,51.26-15.55,70.99,5.09,3.99,9.77,7.01,14.03,9.06,1.02.5,1.45,1.73.95,2.76-.03.06-.06.11-.09.17-3.46,5.79-10.06,11.89-12.73,18.33-4.34,10.42-1.29,19.13,9.17,26.13.24.16.56.09.73-.16.02-.02.03-.05.04-.08l6.8-15.25Z"/>
  <path class="cls-3" d="M306.57,42.81c10.83-1.54,21.33-1.63,30.56,3.69,21,12.14,22.55,41.5,21.43,62.72-.08,1.35.63,2.62,1.81,3.26,9.4,5.09,17.13,13.97,18.12,24.9.59,6.28-1.74,12.77-4.39,18.98-.43,1-.25,2.16.45,3,6.21,7.34,11.26,14.47,15.17,21.4,12.82,22.76,12.34,48.52-12.91,61.79-.64.34-.88,1.13-.54,1.78.05.09.11.18.18.26,9.27,10.35,14.62,24.75,7.37,37.74-3.05,5.45-7.77,9.34-13.31,13.58-.84.64-1.27,1.69-1.11,2.73,3.35,23.3-8.13,40.93-29.43,49.11-23.25,8.93-53.5,9-70.45-12.3-7.09-8.93-11.22-19.06-12.38-30.38-.18-1.82-.25-7.38-.2-16.7.22-37.77.41-119.65.57-245.64.01-8.27,3.13-15.71,9.36-22.29,7.12-7.52,15.43-12.65,24.05-3.78,7.77,7.96,9.95,15.5,13.88,25.15.28.7,1.01,1.13,1.76,1.02ZM358.44,273.24c.05-.44.45-.76.89-.71.21.02.41.13.54.3,2.74,3.56,4.82,7.76,6.24,12.59.21.74.98,1.18,1.72.97.16-.04.31-.12.45-.22,13.29-9.51,11.64-22.9,2.22-34.03-2.37-2.81-4.87-6.18-7.5-10.12-.31-.46-.18-1.09.29-1.4,0,0,.01,0,.02-.01,3.72-2.3,8.07-5.08,13.06-8.36,28.82-18.92,2.01-55.75-13.65-72.53-.64-.69-.7-1.73-.16-2.49,13.04-18.42,6.19-31.77-12.88-39.48-1-.4-1.6-1.44-1.45-2.51,3.41-23.75,2.42-65.7-32.27-64.54-4.29.14-10.12,1.83-14.03,3-1.17.35-2.4-.28-2.8-1.42-3.39-9.58-6.89-20.56-13.33-28.47-.34-.42-.75-.77-1.2-1.06-7.68-4.68-16.72,9.24-18.01,14.58-.11.43-.18.87-.22,1.33-.72,8.85-1.09,15.25-1.13,19.19-.5,54.42-.69,107.82-.56,160.21.05,20.36-.84,52.7.22,75.35.47,9.66,1.72,17.27,3.77,22.83,6.89,18.74,20.58,28.02,41.07,27.86,22.83-.2,51.75-10.06,51.12-37.33-.17-7.15-.91-15.49-2.22-25-.39-2.93-.47-5.78-.22-8.54Z"/>
  <path class="cls-3" d="M294.51,153.82c3.09-13.88,4.83-28.03,5.24-42.44.32-11.55-5.61-25.18-10.96-40.21-.12-.35-.1-.62.05-.83.23-.29.65-.33.93-.1.01,0,.02.02.04.03,9.27,8.8,15.26,19.37,17.99,31.69.11.52.63.85,1.16.73.18-.04.35-.13.49-.27,7.48-7.53,11.28-17.99,14.24-28.9.14-.51.42-.91.84-1.18.26-.18.62-.1.8.16.04.06.07.13.08.2,2.67,12.9.06,24.12-7.82,33.65-2.15,2.6-5.74,5.24-8.14,7.44-.45.42-.73.99-.77,1.6-1.15,13.89-5.7,26.78-13.65,38.65-.08.14-.26.18-.39.1-.11-.07-.17-.21-.13-.33Z"/>
  <path class="cls-2" d="M204.72,153.75c.03.16-.08.3-.23.33-.1.02-.2-.02-.27-.1-7.95-11.84-12.51-24.69-13.69-38.55-.05-.61-.32-1.18-.77-1.6-2.39-2.19-5.97-4.81-8.13-7.41-7.88-9.49-10.5-20.68-7.86-33.56.07-.31.37-.51.68-.44.07.02.14.04.2.08.42.28.7.67.84,1.18,2.98,10.87,6.78,21.31,14.26,28.81.38.38.99.38,1.37,0,.13-.13.22-.29.26-.47,2.7-12.3,8.67-22.85,17.9-31.64.27-.25.69-.23.94.04.01.01.02.02.03.04.16.2.17.48.05.83-5.31,14.99-11.21,28.61-10.87,40.12.42,14.37,2.18,28.48,5.27,42.33Z"/>
  <path class="cls-3" d="M288.92,211.79c-.31.09-.64-.09-.73-.41-.03-.12-.03-.25.01-.36,7.23-20.29,19.39-39.55,42.42-40.91,2.64-.16,4.63.07,5.95.66.99.45,1.43,1.62.98,2.61-.19.42-.52.76-.93.96-2.91,1.42-6.01,2.7-9.33,3.84-6.76,2.33-12.88,6.52-18.38,12.57-10.18,11.17-16.4,17.94-18.67,20.32-.31.32-.75.56-1.33.72Z"/>
  <path class="cls-2" d="M212.17,213.58c.1.23,0,.49-.22.59-.19.09-.42.03-.55-.14-6.42-7.75-12.98-15.14-19.68-22.19-5.95-6.24-13.15-11.86-19.86-13.99-9.04-2.87-13.69-4.36-13.94-4.47-.45-.17-.68-.68-.51-1.13.11-.29.36-.5.66-.55,12.91-2.71,23.77-1.06,33.61,8.04,10.04,9.27,15.87,21.61,20.48,33.85Z"/>
  <path class="cls-2" d="M170.19,271.79c-.23.07-.49-.05-.57-.27-.06-.17-.01-.35.12-.46,6.78-6.22,12.15-13.27,16.12-21.15,3.91-7.78,5.79-21.95,6.22-30.31,0-.19.17-.33.36-.33.08,0,.16.04.22.09.33.33.63,1,.88,1.99,3.24,13.12,2.6,25.64-1.92,37.56-.24.61-.06,1.3.45,1.72,9.4,7.82,13.08,18.01,11.05,30.58-.06.42-.46.71-.89.64-.25-.04-.47-.2-.59-.43-4.82-9.81-8.14-18.04-14.65-24.45-.44-.44-1.09-.59-1.69-.39l-15.12,5.2Z"/>
  <path class="cls-3" d="M327.84,271.64l-13.83-4.86c-.73-.25-1.54-.01-2.03.59-3.48,4.34-6.78,8.3-8.66,12.75-.83,1.96-2.64,5.66-5.43,11.1-.21.4-.71.56-1.12.34-.23-.12-.38-.34-.43-.59-.97-6.96-.3-13.6,2.01-19.93.33-.92.82-1.78,1.45-2.51l6.76-8.02c.45-.53.62-1.24.45-1.92-.97-3.92-1.88-7.65-2.74-11.19-2.15-8.91-1.52-17.58,1.88-26.03.13-.29.47-.42.76-.29.18.08.31.25.34.45,1.29,13.24,4.13,28.34,12.41,38.24,5.4,6.43,8.4,10.01,8.99,10.74.24.32.18.77-.14,1.01-.19.15-.44.19-.67.11Z"/>
  <path class="cls-1" d="M326.68,486.24l2.92-43.05c.05-.82.53-1.54,1.27-1.89,19.33-9.36,37.45-18.76,54.38-28.19,3.24-1.79,5.01-3.94,6.18-7.56,8.17-25.35,14.19-50.01,23.14-76.14,2.07-6.03,3.15-11.75,3.24-17.16.01-.58-.45-1.06-1.03-1.07-.07,0-.14,0-.21.02-2.34.42-4.25,1.62-5.73,3.63-14.88,20.02-24.9,34.22-33.55,53.71-12.24,27.63-48.18,38.8-75.84,37.2-1.31-.09-2.57.59-3.24,1.74-9.59,16.32-13.8,36.81-16.1,54.3-.14,1.03-1.04,1.77-2.07,1.7l-2.55-.18c-1.31-.09-2.3-1.23-2.21-2.55,0-.03,0-.07,0-.1,1.77-15.96,5.6-31.68,11.5-47.14,2.4-6.3,6.92-14.7,14.9-14.64,7.23.04,12.99-.16,17.29-.6,1.75-.17,3.35-1.05,4.45-2.42,9.85-12.3,17.57-22.03,26.4-30.9,5.19-5.21,9.69-7.31,16.71-6.38,2.83.39,4.91.53,6.22.41.67-.05,1.27-.45,1.58-1.05,9.3-17.82,20.71-35.8,34.55-50.38,1.96-2.08,4.02-3.01,6.16-2.79,11.56,1.15,11.09,11.89,8.36,20.67-2.04,6.55-4.45,14.17-7.21,22.87-.77,2.43-6.58,21.71-17.43,57.83-1.83,6.14-5.19,10.53-10.08,13.18-16.7,9.06-33.16,17.62-49.39,25.68-1.86.93-3.09,2.77-3.24,4.84l-2.36,34.88c-.04.66-.47,1.24-1.11,1.46l-4.15,1.42c-.68.24-1.43-.12-1.66-.8-.06-.17-.08-.35-.07-.53ZM334.77,393.71c.11.42.54.66.95.55.03,0,.05-.02.08-.03,14.29-5.42,26.71-12.79,34.22-26.61.25-.45.08-1.02-.37-1.27-.06-.03-.12-.06-.18-.07-5.91-1.83-10.78-.77-14.58,3.2-7.72,8.05-14.36,15.83-19.91,23.36-.22.31-.29.6-.21.88Z"/>
  <path class="cls-1" d="M167.64,486.55c-.64-.23-1.07-.8-1.11-1.46l-2.34-35.04c-.14-2.08-1.38-3.92-3.26-4.85-16.27-8.11-32.79-16.72-49.54-25.83-4.91-2.66-8.29-7.08-10.12-13.24-10.85-36.26-16.66-55.62-17.43-58.06-2.78-8.73-5.19-16.39-7.23-22.97-2.73-8.81-3.18-19.59,8.42-20.75,2.16-.22,4.22.71,6.18,2.81,13.88,14.64,25.33,32.72,34.65,50.61.31.6.91,1,1.58,1.05,1.31.12,3.39-.02,6.24-.41,7.06-.94,11.56,1.19,16.77,6.41,8.87,8.93,16.61,18.7,26.48,31.06,1.1,1.38,2.71,2.26,4.46,2.44,4.32.44,10.1.65,17.35.62,8.01-.06,12.54,8.38,14.95,14.7,5.9,15.53,9.74,31.31,11.5,47.34.15,1.32-.79,2.51-2.1,2.66-.04,0-.08,0-.12.01l-2.55.18c-1.03.07-1.94-.68-2.09-1.72-2.28-17.55-6.49-38.14-16.1-54.51-.67-1.16-1.93-1.84-3.26-1.75-27.78,1.58-63.83-9.67-76.12-37.42-8.66-19.59-18.72-33.85-33.63-53.97-1.48-2.01-3.4-3.23-5.75-3.65-.57-.11-1.12.27-1.23.84-.01.07-.02.14-.02.21.09,5.43,1.17,11.18,3.24,17.24,8.95,26.24,14.97,51,23.16,76.47,1.17,3.63,2.94,5.79,6.2,7.58,16.98,9.5,35.16,18.96,54.55,28.37.73.35,1.22,1.07,1.27,1.89l2.91,43.23c.05.72-.5,1.34-1.23,1.39-.17.01-.34-.01-.51-.06l-4.17-1.42ZM165.71,393.86c.08-.27,0-.57-.23-.88-5.67-7.56-12.45-15.38-20.34-23.46-3.89-3.98-8.81-5.01-14.76-3.1-.5.16-.78.7-.62,1.2.02.06.04.11.07.16,7.7,13.92,20.34,21.25,34.84,26.61.42.14.87-.07,1.01-.47,0-.02.02-.05.02-.07Z"/>
</svg>