<?xml version="1.0" encoding="UTF-8" standalone="no"?>
<!DOCTYPE svg PUBLIC "-//W3C//DTD SVG 1.1//EN" "http://www.w3.org/Graphics/SVG/1.1/DTD/svg11.dtd">
<svg xmlns="http://www.w3.org/2000/svg" version="1.1" viewBox="0.00 0.00 500.00 500.00">
<g stroke-width="2.00" fill="none" stroke-linecap="butt">
<path stroke="#e790ae" vector-effect="non-scaling-stroke" d="
  M 223.27 77.52
  A 0.92 0.92 0.0 0 1 222.29 78.09
  C 216.26 77.23 210.41 77.18 205.27 80.15
  C 193.57 86.92 192.72 103.28 193.34 115.10
  A 1.95 1.94 74.0 0 1 192.33 116.91
  C 187.10 119.75 182.80 124.70 182.25 130.79
  C 181.92 134.28 183.22 137.90 184.70 141.36
  A 1.61 1.60 -36.6 0 1 184.45 143.02
  Q 179.27 149.16 176.00 154.95
  C 168.86 167.63 169.14 181.97 183.21 189.36
  A 0.73 0.73 0.0 0 1 183.41 190.50
  C 178.25 196.27 175.27 204.29 179.31 211.52
  C 181.01 214.56 183.64 216.73 186.73 219.08
  A 1.62 1.61 23.0 0 1 187.35 220.60
  C 185.48 233.58 191.88 243.40 203.75 247.95
  C 216.70 252.92 233.56 252.96 242.99 241.08
  Q 248.92 233.62 249.88 224.16
  Q 250.03 222.64 249.99 214.85
  Q 249.80 183.29 249.62 78.03
  Q 249.61 71.12 244.40 65.61
  C 240.43 61.43 235.80 58.57 231.00 63.51
  C 226.68 67.95 225.46 72.14 223.27 77.52"
/>
<path stroke="#a2d1da" vector-effect="non-scaling-stroke" d="
  M 284.73 77.48
  C 282.54 72.10 281.32 67.90 276.99 63.46
  C 272.18 58.52 267.55 61.38 263.58 65.57
  Q 258.37 71.08 258.36 78.00
  Q 258.22 183.36 258.04 214.95
  Q 258.00 222.74 258.15 224.26
  Q 259.12 233.73 265.05 241.20
  C 274.50 253.08 291.37 253.04 304.33 248.06
  C 316.21 243.50 322.61 233.67 320.74 220.68
  A 1.62 1.61 -23.0 0 1 321.36 219.16
  C 324.45 216.80 327.08 214.63 328.78 211.59
  C 332.82 204.35 329.84 196.32 324.67 190.55
  A 0.74 0.73 55.0 0 1 324.87 189.41
  C 338.95 182.01 339.22 167.65 332.07 154.96
  Q 328.80 149.17 323.61 143.03
  A 1.61 1.61 0.0 0 1 323.36 141.36
  C 324.84 137.90 326.14 134.28 325.81 130.78
  C 325.26 124.69 320.95 119.74 315.71 116.90
  A 1.95 1.95 0.0 0 1 314.70 115.08
  C 315.32 103.25 314.46 86.88 302.75 80.11
  C 297.60 77.14 291.75 77.19 285.71 78.05
  A 0.92 0.92 0.0 0 1 284.73 77.48"
/>
<path stroke="#8a8a8a" vector-effect="non-scaling-stroke" d="
  M 215.18 343.10
  L 217.32 343.83
  A 0.68 0.67 7.6 0 0 218.21 343.15
  L 216.72 320.98
  A 1.16 1.15 -79.0 0 0 216.07 320.01
  Q 201.15 312.77 188.09 305.46
  C 186.42 304.54 185.51 303.43 184.91 301.57
  C 180.71 288.51 177.62 275.81 173.03 262.35
  Q 171.44 257.69 171.37 253.51
  A 0.54 0.54 0.0 0 1 172.01 252.97
  Q 173.82 253.29 174.96 254.84
  C 182.61 265.16 187.77 272.47 192.21 282.52
  C 198.51 296.75 217.00 302.52 231.25 301.71
  A 1.81 1.79 73.0 0 1 232.92 302.61
  C 237.85 311.01 240.01 321.57 241.18 330.57
  A 1.02 1.01 84.2 0 0 242.25 331.45
  L 243.56 331.36
  A 1.23 1.23 0.0 0 0 244.70 329.99
  Q 243.34 317.66 238.80 305.71
  C 237.56 302.47 235.24 298.14 231.13 298.17
  Q 225.55 298.19 222.23 297.85
  A 3.36 3.36 0.0 0 1 219.94 296.60
  C 214.88 290.26 210.91 285.25 206.36 280.67
  C 203.69 277.99 201.38 276.90 197.76 277.38
  Q 195.57 277.68 194.56 277.59
  A 1.01 0.99 78.0 0 1 193.75 277.05
  C 188.97 267.87 183.10 258.60 175.98 251.09
  Q 174.47 249.48 172.81 249.65
  C 166.86 250.24 167.09 255.77 168.49 260.29
  Q 170.06 265.35 172.20 272.07
  Q 172.79 273.95 181.14 301.85
  Q 182.55 306.59 186.33 308.64
  Q 199.22 315.65 211.74 321.89
  A 3.03 3.01 11.4 0 1 213.41 324.38
  L 214.61 342.35
  A 0.86 0.84 8.5 0 0 215.18 343.10"
/>
<path stroke="#8a8a8a" vector-effect="non-scaling-stroke" d="
  M 290.16 342.93
  A 0.86 0.84 -8.4 0 0 290.73 342.18
  L 291.94 324.29
  A 3.02 3.00 -11.3 0 1 293.60 321.81
  Q 306.08 315.61 318.93 308.64
  Q 322.69 306.60 324.10 301.88
  Q 332.45 274.09 333.04 272.22
  Q 335.17 265.53 336.74 260.49
  C 338.14 255.99 338.38 250.48 332.45 249.89
  Q 330.80 249.72 329.29 251.32
  C 322.19 258.80 316.34 268.02 311.57 277.16
  A 1.01 0.99 -78.0 0 1 310.76 277.70
  Q 309.75 277.79 307.57 277.49
  C 303.97 277.01 301.66 278.09 299.00 280.76
  C 294.47 285.31 290.51 290.30 285.46 296.61
  A 3.35 3.34 -73.5 0 1 283.18 297.85
  Q 279.87 298.19 274.31 298.16
  C 270.22 298.13 267.90 302.44 266.67 305.67
  Q 262.13 317.57 260.77 329.85
  A 1.23 1.22 -84.8 0 0 261.90 331.21
  L 263.21 331.30
  A 1.01 1.00 -84.2 0 0 264.27 330.43
  C 265.45 321.46 267.61 310.95 272.53 302.58
  A 1.80 1.78 -72.9 0 1 274.19 301.69
  C 288.38 302.51 306.81 296.78 313.09 282.61
  C 317.53 272.61 322.67 265.33 330.30 255.06
  Q 331.44 253.52 333.24 253.20
  A 0.54 0.54 0.0 0 1 333.88 253.74
  Q 333.81 257.90 332.22 262.54
  C 327.63 275.94 324.54 288.59 320.35 301.59
  C 319.75 303.45 318.84 304.55 317.18 305.47
  Q 304.16 312.73 289.29 319.93
  A 1.15 1.14 79.1 0 0 288.64 320.90
  L 287.14 342.98
  A 0.67 0.67 0.0 0 0 288.03 343.66
  L 290.16 342.93"
/>
<path stroke="#e790ae" vector-effect="non-scaling-stroke" d="
  M 168.63 399.00
  Q 170.25 399.01 170.40 398.97
  A 1.04 1.04 0.0 0 0 171.09 398.32
  L 176.98 381.55
  A 0.25 0.25 0.0 0 1 177.46 381.63
  L 177.46 398.52
  A 0.51 0.51 0.0 0 0 177.97 399.03
  L 181.88 399.03
  A 0.52 0.52 0.0 0 0 182.40 398.51
  L 182.40 372.97
  A 0.60 0.60 0.0 0 0 181.80 372.37
  L 176.21 372.37
  A 0.82 0.81 -80.4 0 0 175.44 372.92
  Q 172.15 382.36 169.03 391.48
  Q 168.93 391.77 168.66 391.77
  Q 168.38 391.77 168.29 391.48
  Q 165.22 382.34 162.00 372.88
  A 0.82 0.81 80.8 0 0 161.23 372.32
  L 155.64 372.28
  A 0.60 0.60 0.0 0 0 155.04 372.88
  L 154.87 398.42
  A 0.52 0.52 0.0 0 0 155.39 398.94
  L 159.30 398.97
  A 0.51 0.51 0.0 0 0 159.81 398.46
  L 159.92 381.57
  A 0.25 0.25 0.0 0 1 160.40 381.50
  L 166.18 398.30
  A 1.04 1.04 0.0 0 0 166.87 398.95
  Q 167.01 399.00 168.63 399.00"
/>
<path stroke="#e790ae" vector-effect="non-scaling-stroke" d="
  M 212.66 382.99
  A 0.41 0.41 0.0 0 1 212.25 382.58
  L 212.25 377.19
  A 0.41 0.41 0.0 0 1 212.66 376.78
  L 224.26 376.78
  A 0.41 0.41 0.0 0 0 224.67 376.37
  L 224.67 372.75
  A 0.41 0.41 0.0 0 0 224.26 372.34
  L 207.39 372.34
  A 0.41 0.41 0.0 0 0 206.98 372.75
  L 206.98 398.57
  A 0.41 0.41 0.0 0 0 207.39 398.98
  L 224.53 398.98
  A 0.41 0.41 0.0 0 0 224.94 398.57
  L 224.94 394.99
  A 0.41 0.41 0.0 0 0 224.53 394.58
  L 212.66 394.58
  A 0.41 0.41 0.0 0 1 212.25 394.17
  L 212.25 387.73
  A 0.41 0.41 0.0 0 1 212.66 387.32
  L 222.71 387.32
  A 0.41 0.41 0.0 0 0 223.12 386.91
  L 223.12 383.40
  A 0.41 0.41 0.0 0 0 222.71 382.99
  L 212.66 382.99"
/>
<path stroke="#e790ae" vector-effect="non-scaling-stroke" d="
  M 264.71 394.99
  A 0.41 0.41 0.0 0 0 264.30 394.58
  L 253.16 394.58
  A 0.41 0.41 0.0 0 1 252.75 394.17
  L 252.75 372.75
  A 0.41 0.41 0.0 0 0 252.34 372.34
  L 247.86 372.34
  A 0.41 0.41 0.0 0 0 247.45 372.75
  L 247.45 398.59
  A 0.41 0.41 0.0 0 0 247.86 399.00
  L 264.30 399.00
  A 0.41 0.41 0.0 0 0 264.71 398.59
  L 264.71 394.99"
/>
<path stroke="#e790ae" vector-effect="non-scaling-stroke" d="
  M 291.99 393.91
  L 291.98 372.76
  A 0.42 0.42 0.0 0 0 291.56 372.34
  L 287.14 372.35
  A 0.44 0.43 -0.0 0 0 286.70 372.78
  L 286.68 398.35
  A 0.65 0.65 0.0 0 0 287.33 399.00
  L 303.48 399.00
  A 0.48 0.48 0.0 0 0 303.96 398.52
  L 303.95 394.99
  A 0.42 0.42 0.0 0 0 303.53 394.57
  L 292.68 394.60
  A 0.69 0.69 0.0 0 1 291.99 393.91"
/>
<path stroke="#e790ae" vector-effect="non-scaling-stroke" d="
  M 335.48 392.85
  Q 339.04 392.86 339.84 392.86
  A 0.97 0.96 -9.2 0 1 340.74 393.51
  L 342.45 398.48
  A 0.78 0.77 80.5 0 0 343.18 399.01
  L 347.46 399.01
  A 0.43 0.43 0.0 0 0 347.87 398.44
  L 339.12 373.01
  A 0.93 0.92 81.2 0 0 338.28 372.39
  Q 336.75 372.35 335.50 372.35
  Q 334.25 372.35 332.72 372.38
  A 0.93 0.92 -81.1 0 0 331.88 373.00
  L 323.07 398.41
  A 0.43 0.43 0.0 0 0 323.48 398.98
  L 327.76 398.99
  A 0.78 0.77 -80.3 0 0 328.49 398.46
  L 330.21 393.50
  A 0.97 0.96 9.3 0 1 331.12 392.85
  Q 331.91 392.85 335.48 392.85"
/>
<path stroke="#a2d1da" vector-effect="non-scaling-stroke" d="
  M 192.87 433.42
  A 0.99 0.99 0.0 0 0 192.91 434.87
  Q 196.79 438.29 201.89 436.84
  C 206.37 435.57 207.02 428.74 202.52 427.45
  Q 197.74 426.07 197.31 425.93
  Q 196.42 425.64 196.35 424.52
  A 1.70 1.70 0.0 0 1 197.73 422.74
  Q 200.51 422.19 202.36 423.59
  A 0.87 0.86 -48.7 0 0 203.50 423.51
  L 204.48 422.53
  A 0.94 0.93 38.6 0 0 204.31 421.07
  Q 200.38 418.65 196.12 420.17
  C 191.92 421.67 191.78 427.67 196.24 429.00
  C 198.98 429.82 202.03 429.95 202.04 432.21
  A 1.98 1.98 0.0 0 1 200.32 434.18
  Q 196.94 434.62 195.05 432.27
  A 0.67 0.66 -41.8 0 0 194.06 432.22
  L 192.87 433.42"
/>
<path stroke="#a2d1da" vector-effect="non-scaling-stroke" d="
  M 120.85 428.76
  C 121.04 433.23 123.26 436.74 127.99 437.15
  Q 133.56 437.64 135.67 433.27
  A 0.84 0.83 -65.0 0 0 135.26 432.14
  L 133.72 431.46
  A 0.75 0.74 -66.3 0 0 132.72 431.86
  Q 131.44 434.92 127.54 434.07
  C 125.11 433.53 124.47 430.77 124.38 428.61
  C 124.28 426.45 124.69 423.65 127.06 422.90
  Q 130.87 421.72 132.41 424.66
  A 0.75 0.74 61.4 0 0 133.44 424.98
  L 134.92 424.16
  A 0.84 0.83 60.0 0 0 135.22 423.00
  Q 132.75 418.83 127.24 419.79
  C 122.56 420.61 120.66 424.30 120.85 428.76"
/>
<path stroke="#a2d1da" vector-effect="non-scaling-stroke" d="
  M 153.5000 427.0504
  A 7.23 7.23 0.0 0 0 146.3717 419.7202
  L 145.0318 419.7015
  A 7.23 7.23 0.0 0 0 137.7016 426.8298
  L 137.6600 429.8096
  A 7.23 7.23 0.0 0 0 144.7883 437.1398
  L 146.1282 437.1585
  A 7.23 7.23 0.0 0 0 153.4584 430.0302
  L 153.5000 427.0504"
/>
<path stroke="#a2d1da" vector-effect="non-scaling-stroke" d="
  M 164.07 437.25
  C 170.59 437.26 171.07 433.30 171.06 428.01
  Q 171.06 424.01 171.07 420.37
  A 0.53 0.53 0.0 0 0 170.54 419.84
  L 168.18 419.84
  A 0.49 0.48 -0.6 0 0 167.69 420.33
  Q 167.77 426.24 167.64 431.25
  A 3.05 3.04 80.8 0 1 165.65 434.02
  Q 165.11 434.22 164.08 434.22
  Q 163.05 434.21 162.50 434.02
  A 3.05 3.04 -80.7 0 1 160.52 431.24
  Q 160.40 426.23 160.49 420.32
  A 0.49 0.48 0.7 0 0 160.00 419.83
  L 157.64 419.83
  A 0.53 0.53 0.0 0 0 157.11 420.36
  Q 157.11 424.00 157.10 428.00
  C 157.08 433.29 157.56 437.25 164.07 437.25"
/>
<path stroke="#a2d1da" vector-effect="non-scaling-stroke" d="
  M 186.60 419.82
  A 0.31 0.31 0.0 0 0 186.29 420.13
  L 186.29 430.75
  A 0.31 0.31 0.0 0 1 185.71 430.91
  L 179.40 419.98
  A 0.31 0.31 0.0 0 0 179.13 419.82
  L 175.54 419.82
  A 0.31 0.31 0.0 0 0 175.23 420.13
  L 175.23 436.63
  A 0.31 0.31 0.0 0 0 175.54 436.94
  L 178.24 436.94
  A 0.31 0.31 0.0 0 0 178.55 436.63
  L 178.55 425.60
  A 0.31 0.31 0.0 0 1 179.13 425.44
  L 185.68 436.79
  A 0.31 0.31 0.0 0 0 185.95 436.95
  L 189.29 436.95
  A 0.31 0.31 0.0 0 0 189.60 436.64
  L 189.60 420.13
  A 0.31 0.31 0.0 0 0 189.29 419.82
  L 186.60 419.82"
/>
<path stroke="#a2d1da" vector-effect="non-scaling-stroke" d="
  M 212.51 426.67
  A 0.39 0.39 0.0 0 1 212.12 426.28
  L 212.12 423.12
  A 0.39 0.39 0.0 0 1 212.51 422.73
  L 219.74 422.73
  A 0.39 0.39 0.0 0 0 220.13 422.34
  L 220.13 420.22
  A 0.39 0.39 0.0 0 0 219.74 419.83
  L 209.10 419.83
  A 0.39 0.39 0.0 0 0 208.71 420.22
  L 208.71 436.60
  A 0.39 0.39 0.0 0 0 209.10 436.99
  L 219.93 436.99
  A 0.39 0.39 0.0 0 0 220.32 436.60
  L 220.32 434.53
  A 0.39 0.39 0.0 0 0 219.93 434.14
  L 212.51 434.14
  A 0.39 0.39 0.0 0 1 212.12 433.75
  L 212.12 429.90
  A 0.39 0.39 0.0 0 1 212.51 429.51
  L 218.72 429.51
  A 0.39 0.39 0.0 0 0 219.11 429.12
  L 219.11 427.06
  A 0.39 0.39 0.0 0 0 218.72 426.67
  L 212.51 426.67"
/>
<path stroke="#a2d1da" vector-effect="non-scaling-stroke" d="
  M 223.93 419.82
  A 0.48 0.48 0.0 0 0 223.45 420.30
  L 223.45 436.50
  A 0.48 0.48 0.0 0 0 223.93 436.98
  L 234.14 436.98
  A 0.48 0.48 0.0 0 0 234.62 436.50
  L 234.62 434.62
  A 0.48 0.48 0.0 0 0 234.14 434.14
  L 227.35 434.14
  A 0.48 0.48 0.0 0 1 226.87 433.66
  L 226.87 420.30
  A 0.48 0.48 0.0 0 0 226.39 419.82
  L 223.93 419.82"
/>
<path stroke="#a2d1da" vector-effect="non-scaling-stroke" d="
  M 240.89 420.25
  A 0.43 0.43 0.0 0 0 240.46 419.82
  L 237.86 419.82
  A 0.43 0.43 0.0 0 0 237.43 420.25
  L 237.43 436.57
  A 0.43 0.43 0.0 0 0 237.86 437.00
  L 240.46 437.00
  A 0.43 0.43 0.0 0 0 240.89 436.57
  L 240.89 420.25"
/>
<path stroke="#a2d1da" vector-effect="non-scaling-stroke" d="
  M 255.78 430.64
  L 249.35 420.27
  A 1.01 0.99 -15.6 0 0 248.50 419.80
  L 245.71 419.79
  A 0.51 0.51 0.0 0 0 245.20 420.29
  L 245.20 436.50
  A 0.49 0.49 0.0 0 0 245.71 436.99
  L 248.07 436.97
  A 0.49 0.48 90.0 0 0 248.55 436.48
  L 248.53 425.78
  A 0.25 0.25 0.0 0 1 249.00 425.65
  L 255.75 436.58
  A 0.87 0.86 74.1 0 0 256.46 436.98
  L 259.09 436.99
  A 0.52 0.52 0.0 0 0 259.61 436.47
  L 259.61 420.25
  A 0.46 0.46 0.0 0 0 259.14 419.78
  L 256.73 419.80
  A 0.45 0.44 -0.7 0 0 256.29 420.24
  L 256.30 430.49
  A 0.28 0.28 0.0 0 1 255.78 430.64"
/>
<path stroke="#a2d1da" vector-effect="non-scaling-stroke" d="
  M 274.66 435.11
  L 274.66 436.48
  A 0.52 0.52 0.0 0 0 275.18 437.00
  L 277.39 437.00
  A 0.53 0.53 0.0 0 0 277.92 436.47
  L 277.92 428.08
  A 0.56 0.56 0.0 0 0 277.36 427.52
  L 271.04 427.52
  A 0.60 0.59 0.0 0 0 270.44 428.11
  L 270.44 429.74
  A 0.58 0.58 0.0 0 0 271.02 430.32
  L 273.79 430.32
  A 0.66 0.65 -3.5 0 1 274.44 430.89
  C 274.98 435.45 267.55 435.63 266.80 430.64
  C 266.26 427.04 266.60 422.56 271.24 422.58
  Q 273.74 422.59 274.71 424.32
  A 0.70 0.69 -29.5 0 0 275.67 424.58
  L 277.28 423.65
  A 0.70 0.70 0.0 0 0 277.54 422.69
  C 275.06 418.27 267.00 418.82 264.43 422.98
  C 261.95 427.01 262.62 435.00 267.60 436.79
  Q 271.91 438.34 274.34 435.00
  A 0.18 0.18 0.0 0 1 274.66 435.11"
/>
<path stroke="#a2d1da" vector-effect="non-scaling-stroke" d="
  M 286.59 428.77
  C 286.79 433.24 289.01 436.74 293.74 437.14
  Q 299.31 437.62 301.41 433.25
  A 0.84 0.83 -65.1 0 0 301.00 432.12
  L 299.46 431.44
  A 0.75 0.74 -66.4 0 0 298.46 431.84
  Q 297.19 434.91 293.29 434.06
  C 290.86 433.53 290.21 430.77 290.12 428.61
  C 290.02 426.45 290.42 423.65 292.79 422.90
  Q 296.60 421.71 298.14 424.65
  A 0.75 0.74 61.3 0 0 299.17 424.96
  L 300.64 424.15
  A 0.84 0.83 59.9 0 0 300.95 422.98
  Q 298.47 418.82 292.97 419.79
  C 288.29 420.61 286.39 424.30 286.59 428.77"
/>
<path stroke="#a2d1da" vector-effect="non-scaling-stroke" d="
  M 308.02 422.72
  L 315.17 422.75
  A 0.46 0.45 -88.8 0 0 315.63 422.29
  L 315.64 420.36
  A 0.51 0.51 0.0 0 0 315.13 419.84
  L 304.83 419.83
  A 0.62 0.61 -89.6 0 0 304.21 420.45
  L 304.21 436.42
  A 0.58 0.57 90.0 0 0 304.78 437.00
  L 315.32 436.97
  A 0.52 0.52 0.0 0 0 315.84 436.44
  L 315.83 434.54
  A 0.43 0.43 0.0 0 0 315.40 434.12
  L 307.98 434.16
  A 0.36 0.36 0.0 0 1 307.62 433.80
  L 307.64 429.81
  A 0.32 0.32 0.0 0 1 307.96 429.49
  L 314.12 429.52
  A 0.49 0.49 0.0 0 0 314.60 429.04
  L 314.64 427.13
  A 0.46 0.46 0.0 0 0 314.18 426.66
  L 307.96 426.67
  A 0.36 0.35 0.7 0 1 307.60 426.31
  L 307.64 423.09
  A 0.38 0.37 -0.0 0 1 308.02 422.72"
/>
<path stroke="#a2d1da" vector-effect="non-scaling-stroke" d="
  M 329.53 430.63
  L 323.13 420.29
  A 1.00 0.99 -15.6 0 0 322.28 419.82
  L 319.51 419.81
  A 0.51 0.51 0.0 0 0 319.00 420.31
  L 318.98 436.45
  A 0.49 0.49 0.0 0 0 319.48 436.94
  L 321.84 436.93
  A 0.49 0.48 -90.0 0 0 322.32 436.44
  L 322.31 425.78
  A 0.25 0.25 0.0 0 1 322.77 425.65
  L 329.49 436.55
  A 0.87 0.86 74.2 0 0 330.20 436.95
  L 332.81 436.96
  A 0.52 0.52 0.0 0 0 333.33 436.44
  L 333.35 420.27
  A 0.46 0.46 0.0 0 0 332.89 419.81
  L 330.48 419.82
  A 0.45 0.44 -0.6 0 0 330.04 420.26
  L 330.04 430.48
  A 0.28 0.28 0.0 0 1 329.53 430.63"
/>
<path stroke="#a2d1da" vector-effect="non-scaling-stroke" d="
  M 342.87 436.98
  Q 343.63 436.98 343.94 436.97
  A 0.66 0.65 -0.5 0 0 344.58 436.32
  L 344.58 423.22
  A 0.48 0.48 0.0 0 1 345.06 422.74
  L 349.04 422.74
  A 0.47 0.47 0.0 0 0 349.51 422.28
  L 349.54 420.34
  A 0.49 0.49 0.0 0 0 349.03 419.84
  Q 348.99 419.84 342.86 419.84
  Q 336.73 419.85 336.69 419.84
  A 0.49 0.49 0.0 0 0 336.18 420.34
  L 336.21 422.28
  A 0.47 0.47 0.0 0 0 336.68 422.74
  L 340.66 422.74
  A 0.48 0.48 0.0 0 1 341.15 423.22
  L 341.15 436.32
  A 0.66 0.65 0.5 0 0 341.80 436.97
  Q 342.10 436.98 342.87 436.98"
/>
<path stroke="#a2d1da" vector-effect="non-scaling-stroke" d="
  M 355.80 422.72
  L 362.94 422.76
  A 0.46 0.45 -88.7 0 0 363.40 422.31
  L 363.41 420.37
  A 0.51 0.51 0.0 0 0 362.90 419.85
  L 352.61 419.83
  A 0.62 0.61 -89.5 0 0 351.99 420.45
  L 351.97 436.41
  A 0.58 0.57 -90.0 0 0 352.54 436.99
  L 363.07 436.98
  A 0.52 0.52 0.0 0 0 363.59 436.45
  L 363.58 434.55
  A 0.43 0.43 0.0 0 0 363.15 434.13
  L 355.74 434.15
  A 0.36 0.36 0.0 0 1 355.38 433.79
  L 355.40 429.81
  A 0.32 0.32 0.0 0 1 355.72 429.49
  L 361.88 429.53
  A 0.49 0.49 0.0 0 0 362.37 429.05
  L 362.41 427.14
  A 0.46 0.46 0.0 0 0 361.95 426.67
  L 355.73 426.67
  A 0.36 0.35 0.8 0 1 355.37 426.31
  L 355.42 423.09
  A 0.38 0.37 0.0 0 1 355.80 422.72"
/>
<path stroke="#a2d1da" vector-effect="non-scaling-stroke" d="
  M 376.50 428.19
  C 380.60 426.46 379.46 420.33 374.74 419.98
  Q 371.52 419.75 367.07 419.87
  A 0.38 0.38 0.0 0 0 366.70 420.25
  L 366.70 436.51
  A 0.50 0.49 0.0 0 0 367.20 437.00
  L 369.66 437.00
  A 0.46 0.46 0.0 0 0 370.12 436.54
  L 370.12 430.51
  A 0.70 0.70 0.0 0 1 370.77 429.81
  Q 373.13 429.65 374.16 430.85
  A 0.42 0.38 -78.7 0 1 374.26 431.02
  L 376.20 436.64
  A 0.52 0.50 80.3 0 0 376.68 436.99
  L 379.36 436.99
  A 0.27 0.27 0.0 0 0 379.62 436.66
  Q 378.38 431.45 376.32 428.90
  A 0.46 0.45 -31.2 0 1 376.50 428.19"
/>
<path stroke="#e790ae" vector-effect="non-scaling-stroke" d="
  M 192.57 205.63
  A 0.34 0.34 0.0 0 1 193.22 205.78
  Q 192.91 212.21 192.16 221.49
  C 191.50 229.52 192.87 236.31 199.88 240.59
  Q 209.30 246.33 221.28 246.07
  C 235.32 245.76 243.34 237.16 244.97 223.95
  Q 245.60 218.85 245.59 214.00
  Q 245.50 147.35 245.08 80.00
  Q 245.05 75.53 244.28 73.93
  Q 241.77 68.75 236.93 65.77
  A 1.18 1.17 40.2 0 0 235.54 65.88
  C 230.33 70.45 228.55 77.01 226.36 83.62
  A 0.62 0.62 0.0 0 1 225.64 84.03
  C 222.50 83.36 218.35 82.09 215.12 82.31
  C 196.76 83.56 197.53 105.93 198.68 119.09
  A 0.74 0.73 76.8 0 1 198.22 119.84
  C 192.14 122.22 186.43 126.04 187.04 133.07
  C 187.33 136.38 189.06 139.13 190.82 142.01
  A 1.00 1.00 0.0 0 1 190.71 143.21
  C 182.16 152.52 167.98 171.79 182.04 182.79
  Q 186.30 186.13 189.86 187.84
  A 1.15 1.15 0.0 0 1 190.34 189.47
  C 188.41 192.70 184.73 196.10 183.24 199.69
  Q 179.61 208.40 188.35 214.26
  A 0.30 0.29 -61.6 0 0 188.78 214.13
  L 192.57 205.63"
/>
<path stroke="#a2d1da" vector-effect="non-scaling-stroke" d="
  M 314.63 206.52
  A 0.45 0.45 0.0 0 1 315.43 206.29
  Q 317.72 209.27 318.91 213.31
  A 0.78 0.78 0.0 0 0 320.12 213.73
  C 327.53 208.43 326.61 200.96 321.36 194.76
  Q 319.38 192.41 317.18 189.12
  A 0.57 0.56 -33.0 0 1 317.35 188.33
  Q 320.46 186.41 324.63 183.67
  C 340.70 173.12 325.75 152.59 317.02 143.23
  A 1.11 1.10 41.4 0 1 316.93 141.84
  C 324.20 131.57 320.38 124.13 309.75 119.83
  A 1.32 1.31 -75.2 0 1 308.94 118.43
  C 310.84 105.19 310.29 81.80 290.95 82.45
  C 288.56 82.53 285.31 83.47 283.13 84.12
  A 1.27 1.26 -18.1 0 1 281.57 83.33
  C 279.68 77.99 277.73 71.87 274.14 67.46
  A 2.89 2.79 85.3 0 0 273.47 66.87
  C 269.19 64.26 264.15 72.02 263.43 75.00
  A 4.80 4.09 58.8 0 0 263.31 75.74
  Q 262.71 83.14 262.68 86.44
  Q 262.26 131.95 262.37 175.76
  C 262.40 187.11 261.90 205.14 262.49 217.77
  Q 262.88 225.85 264.59 230.50
  Q 270.35 246.17 287.49 246.03
  C 300.22 245.92 316.34 240.42 315.99 225.22
  Q 315.85 219.24 314.75 211.28
  Q 314.42 208.83 314.63 206.52"
/>
<path stroke="#e790ae" vector-effect="non-scaling-stroke" d="
  M 228.93 139.90
  Q 226.34 128.32 225.99 116.30
  C 225.80 109.88 229.09 102.29 232.05 93.93
  Q 232.15 93.64 232.02 93.47
  A 0.37 0.37 0.0 0 0 231.48 93.43
  Q 223.76 100.78 221.50 111.07
  A 0.54 0.54 0.0 0 1 220.59 111.33
  C 216.42 107.15 214.30 101.33 212.64 95.27
  Q 212.52 94.84 212.17 94.61
  A 0.32 0.32 0.0 0 0 211.68 94.81
  Q 209.47 105.58 216.06 113.52
  C 217.26 114.97 219.26 116.43 220.59 117.65
  A 1.35 1.34 -70.9 0 1 221.02 118.54
  Q 222.00 130.13 228.65 140.03
  A 0.16 0.16 0.0 0 0 228.93 139.90"
/>
<path stroke="#e790ae" vector-effect="non-scaling-stroke" d="
  M 233.08 173.26
  C 230.51 166.44 227.26 159.56 221.66 154.39
  C 216.17 149.32 210.12 148.40 202.92 149.91
  A 0.49 0.49 0.0 0 0 202.84 150.85
  Q 203.05 150.94 210.61 153.34
  C 214.35 154.53 218.36 157.66 221.68 161.14
  Q 227.28 167.03 232.65 173.51
  A 0.25 0.25 0.0 0 0 233.08 173.26"
/>
<path stroke="#e790ae" vector-effect="non-scaling-stroke" d="
  M 209.68 205.71
  L 218.11 202.81
  A 0.92 0.91 -31.6 0 1 219.05 203.03
  C 222.68 206.60 224.53 211.19 227.22 216.66
  A 0.44 0.43 36.6 0 0 228.04 216.54
  Q 229.74 206.03 221.88 199.49
  A 0.85 0.85 0.0 0 1 221.63 198.53
  Q 225.41 188.56 222.70 177.59
  Q 222.49 176.76 222.21 176.48
  A 0.19 0.19 0.0 0 0 221.89 176.61
  C 221.65 181.27 220.60 189.17 218.42 193.51
  Q 215.10 200.10 209.43 205.30
  A 0.25 0.24 13.9 0 0 209.68 205.71"
/>
<path stroke="#a2d1da" vector-effect="non-scaling-stroke" d="
  M 278.99 139.94
  A 0.16 0.16 0.0 0 0 279.28 140.07
  Q 285.93 130.14 286.89 118.52
  A 1.35 1.35 0.0 0 1 287.32 117.63
  C 288.66 116.40 290.66 114.93 291.86 113.48
  Q 298.45 105.51 296.22 94.72
  A 0.32 0.32 0.0 0 0 295.73 94.52
  Q 295.38 94.75 295.26 95.18
  C 293.61 101.26 291.49 107.09 287.32 111.29
  A 0.55 0.54 -29.1 0 1 286.40 111.03
  Q 284.12 100.72 276.37 93.36
  A 0.37 0.37 0.0 0 0 275.83 93.40
  Q 275.70 93.57 275.80 93.86
  C 278.78 102.24 282.09 109.84 281.91 116.28
  Q 281.57 128.33 278.99 139.94"
/>
<path stroke="#a2d1da" vector-effect="non-scaling-stroke" d="
  M 275.87 172.26
  Q 276.35 172.13 276.61 171.86
  Q 278.51 169.87 287.02 160.53
  Q 291.62 155.47 297.27 153.52
  Q 300.04 152.57 302.47 151.38
  A 1.10 1.10 0.0 0 0 302.44 149.39
  Q 301.33 148.89 299.12 149.02
  C 286.28 149.78 279.50 160.52 275.47 171.83
  A 0.33 0.33 0.0 0 0 275.87 172.26"
/>
<path stroke="#a2d1da" vector-effect="non-scaling-stroke" d="
  M 298.02 205.01
  Q 297.53 204.40 293.01 199.02
  C 288.39 193.50 286.81 185.08 286.09 177.70
  A 0.32 0.32 0.0 0 0 285.48 177.61
  Q 282.63 184.67 284.43 192.12
  Q 285.15 195.08 285.96 198.36
  A 1.20 1.20 0.0 0 1 285.71 199.43
  L 281.94 203.90
  A 4.58 4.38 76.3 0 0 281.13 205.30
  Q 279.20 210.59 280.01 216.41
  A 0.46 0.46 0.0 0 0 280.87 216.55
  Q 283.21 212.00 283.90 210.36
  C 284.95 207.88 286.79 205.67 288.73 203.25
  A 1.03 1.03 0.0 0 1 289.86 202.92
  L 297.57 205.63
  A 0.40 0.40 0.0 0 0 298.02 205.01"
/>
<path stroke="#8a8a8a" vector-effect="non-scaling-stroke" d="
  M 214.19 295.56
  Q 214.25 295.35 214.07 295.11
  Q 209.71 289.29 203.64 283.08
  Q 200.65 280.02 196.07 281.49
  A 0.49 0.49 0.0 0 0 195.79 282.19
  C 199.74 289.33 206.22 293.09 213.66 295.84
  A 0.41 0.40 17.0 0 0 214.19 295.56"
/>
<path stroke="#8a8a8a" vector-effect="non-scaling-stroke" d="
  M 291.29 295.52
  A 0.40 0.40 0.0 0 0 291.82 295.79
  C 299.15 293.01 305.52 289.23 309.37 282.14
  A 0.48 0.48 0.0 0 0 309.09 281.45
  Q 304.54 280.04 301.61 283.09
  Q 295.67 289.28 291.40 295.07
  Q 291.23 295.31 291.29 295.52"
/>
<path stroke="#e790ae" vector-effect="non-scaling-stroke" d="
  M 331.89 387.95
  A 0.35 0.35 0.0 0 0 332.23 388.40
  L 338.56 388.42
  A 0.35 0.35 0.0 0 0 338.89 387.96
  L 335.74 378.27
  A 0.35 0.35 0.0 0 0 335.08 378.27
  L 331.89 387.95"
/>
<path stroke="#a2d1da" vector-effect="non-scaling-stroke" d="
  M 145.5800 422.4100
  A 6.02 4.62 -90.0 0 0 140.9600 428.4300
  A 6.02 4.62 -90.0 0 0 145.5800 434.4500
  A 6.02 4.62 -90.0 0 0 150.2000 428.4300
  A 6.02 4.62 -90.0 0 0 145.5800 422.4100"
/>
<path stroke="#a2d1da" vector-effect="non-scaling-stroke" d="
  M 370.12 422.91
  L 370.12 426.83
  A 0.33 0.33 0.0 0 0 370.45 427.16
  L 373.38 427.16
  A 2.20 1.94 -0.0 0 0 375.58 425.22
  L 375.58 424.52
  A 2.20 1.94 0.0 0 0 373.38 422.58
  L 370.45 422.58
  A 0.33 0.33 0.0 0 0 370.12 422.91"
/>
</g>
<path fill="#ffffff" d="
  M 500.00 0.00
  L 500.00 500.00
  L 0.00 500.00
  L 0.00 0.00
  L 500.00 0.00
  Z
  M 223.27 77.52
  A 0.92 0.92 0.0 0 1 222.29 78.09
  C 216.26 77.23 210.41 77.18 205.27 80.15
  C 193.57 86.92 192.72 103.28 193.34 115.10
  A 1.95 1.94 74.0 0 1 192.33 116.91
  C 187.10 119.75 182.80 124.70 182.25 130.79
  C 181.92 134.28 183.22 137.90 184.70 141.36
  A 1.61 1.60 -36.6 0 1 184.45 143.02
  Q 179.27 149.16 176.00 154.95
  C 168.86 167.63 169.14 181.97 183.21 189.36
  A 0.73 0.73 0.0 0 1 183.41 190.50
  C 178.25 196.27 175.27 204.29 179.31 211.52
  C 181.01 214.56 183.64 216.73 186.73 219.08
  A 1.62 1.61 23.0 0 1 187.35 220.60
  C 185.48 233.58 191.88 243.40 203.75 247.95
  C 216.70 252.92 233.56 252.96 242.99 241.08
  Q 248.92 233.62 249.88 224.16
  Q 250.03 222.64 249.99 214.85
  Q 249.80 183.29 249.62 78.03
  Q 249.61 71.12 244.40 65.61
  C 240.43 61.43 235.80 58.57 231.00 63.51
  C 226.68 67.95 225.46 72.14 223.27 77.52
  Z
  M 284.73 77.48
  C 282.54 72.10 281.32 67.90 276.99 63.46
  C 272.18 58.52 267.55 61.38 263.58 65.57
  Q 258.37 71.08 258.36 78.00
  Q 258.22 183.36 258.04 214.95
  Q 258.00 222.74 258.15 224.26
  Q 259.12 233.73 265.05 241.20
  C 274.50 253.08 291.37 253.04 304.33 248.06
  C 316.21 243.50 322.61 233.67 320.74 220.68
  A 1.62 1.61 -23.0 0 1 321.36 219.16
  C 324.45 216.80 327.08 214.63 328.78 211.59
  C 332.82 204.35 329.84 196.32 324.67 190.55
  A 0.74 0.73 55.0 0 1 324.87 189.41
  C 338.95 182.01 339.22 167.65 332.07 154.96
  Q 328.80 149.17 323.61 143.03
  A 1.61 1.61 0.0 0 1 323.36 141.36
  C 324.84 137.90 326.14 134.28 325.81 130.78
  C 325.26 124.69 320.95 119.74 315.71 116.90
  A 1.95 1.95 0.0 0 1 314.70 115.08
  C 315.32 103.25 314.46 86.88 302.75 80.11
  C 297.60 77.14 291.75 77.19 285.71 78.05
  A 0.92 0.92 0.0 0 1 284.73 77.48
  Z
  M 215.18 343.10
  L 217.32 343.83
  A 0.68 0.67 7.6 0 0 218.21 343.15
  L 216.72 320.98
  A 1.16 1.15 -79.0 0 0 216.07 320.01
  Q 201.15 312.77 188.09 305.46
  C 186.42 304.54 185.51 303.43 184.91 301.57
  C 180.71 288.51 177.62 275.81 173.03 262.35
  Q 171.44 257.69 171.37 253.51
  A 0.54 0.54 0.0 0 1 172.01 252.97
  Q 173.82 253.29 174.96 254.84
  C 182.61 265.16 187.77 272.47 192.21 282.52
  C 198.51 296.75 217.00 302.52 231.25 301.71
  A 1.81 1.79 73.0 0 1 232.92 302.61
  C 237.85 311.01 240.01 321.57 241.18 330.57
  A 1.02 1.01 84.2 0 0 242.25 331.45
  L 243.56 331.36
  A 1.23 1.23 0.0 0 0 244.70 329.99
  Q 243.34 317.66 238.80 305.71
  C 237.56 302.47 235.24 298.14 231.13 298.17
  Q 225.55 298.19 222.23 297.85
  A 3.36 3.36 0.0 0 1 219.94 296.60
  C 214.88 290.26 210.91 285.25 206.36 280.67
  C 203.69 277.99 201.38 276.90 197.76 277.38
  Q 195.57 277.68 194.56 277.59
  A 1.01 0.99 78.0 0 1 193.75 277.05
  C 188.97 267.87 183.10 258.60 175.98 251.09
  Q 174.47 249.48 172.81 249.65
  C 166.86 250.24 167.09 255.77 168.49 260.29
  Q 170.06 265.35 172.20 272.07
  Q 172.79 273.95 181.14 301.85
  Q 182.55 306.59 186.33 308.64
  Q 199.22 315.65 211.74 321.89
  A 3.03 3.01 11.4 0 1 213.41 324.38
  L 214.61 342.35
  A 0.86 0.84 8.5 0 0 215.18 343.10
  Z
  M 290.16 342.93
  A 0.86 0.84 -8.4 0 0 290.73 342.18
  L 291.94 324.29
  A 3.02 3.00 -11.3 0 1 293.60 321.81
  Q 306.08 315.61 318.93 308.64
  Q 322.69 306.60 324.10 301.88
  Q 332.45 274.09 333.04 272.22
  Q 335.17 265.53 336.74 260.49
  C 338.14 255.99 338.38 250.48 332.45 249.89
  Q 330.80 249.72 329.29 251.32
  C 322.19 258.80 316.34 268.02 311.57 277.16
  A 1.01 0.99 -78.0 0 1 310.76 277.70
  Q 309.75 277.79 307.57 277.49
  C 303.97 277.01 301.66 278.09 299.00 280.76
  C 294.47 285.31 290.51 290.30 285.46 296.61
  A 3.35 3.34 -73.5 0 1 283.18 297.85
  Q 279.87 298.19 274.31 298.16
  C 270.22 298.13 267.90 302.44 266.67 305.67
  Q 262.13 317.57 260.77 329.85
  A 1.23 1.22 -84.8 0 0 261.90 331.21
  L 263.21 331.30
  A 1.01 1.00 -84.2 0 0 264.27 330.43
  C 265.45 321.46 267.61 310.95 272.53 302.58
  A 1.80 1.78 -72.9 0 1 274.19 301.69
  C 288.38 302.51 306.81 296.78 313.09 282.61
  C 317.53 272.61 322.67 265.33 330.30 255.06
  Q 331.44 253.52 333.24 253.20
  A 0.54 0.54 0.0 0 1 333.88 253.74
  Q 333.81 257.90 332.22 262.54
  C 327.63 275.94 324.54 288.59 320.35 301.59
  C 319.75 303.45 318.84 304.55 317.18 305.47
  Q 304.16 312.73 289.29 319.93
  A 1.15 1.14 79.1 0 0 288.64 320.90
  L 287.14 342.98
  A 0.67 0.67 0.0 0 0 288.03 343.66
  L 290.16 342.93
  Z
  M 168.63 399.00
  Q 170.25 399.01 170.40 398.97
  A 1.04 1.04 0.0 0 0 171.09 398.32
  L 176.98 381.55
  A 0.25 0.25 0.0 0 1 177.46 381.63
  L 177.46 398.52
  A 0.51 0.51 0.0 0 0 177.97 399.03
  L 181.88 399.03
  A 0.52 0.52 0.0 0 0 182.40 398.51
  L 182.40 372.97
  A 0.60 0.60 0.0 0 0 181.80 372.37
  L 176.21 372.37
  A 0.82 0.81 -80.4 0 0 175.44 372.92
  Q 172.15 382.36 169.03 391.48
  Q 168.93 391.77 168.66 391.77
  Q 168.38 391.77 168.29 391.48
  Q 165.22 382.34 162.00 372.88
  A 0.82 0.81 80.8 0 0 161.23 372.32
  L 155.64 372.28
  A 0.60 0.60 0.0 0 0 155.04 372.88
  L 154.87 398.42
  A 0.52 0.52 0.0 0 0 155.39 398.94
  L 159.30 398.97
  A 0.51 0.51 0.0 0 0 159.81 398.46
  L 159.92 381.57
  A 0.25 0.25 0.0 0 1 160.40 381.50
  L 166.18 398.30
  A 1.04 1.04 0.0 0 0 166.87 398.95
  Q 167.01 399.00 168.63 399.00
  Z
  M 212.66 382.99
  A 0.41 0.41 0.0 0 1 212.25 382.58
  L 212.25 377.19
  A 0.41 0.41 0.0 0 1 212.66 376.78
  L 224.26 376.78
  A 0.41 0.41 0.0 0 0 224.67 376.37
  L 224.67 372.75
  A 0.41 0.41 0.0 0 0 224.26 372.34
  L 207.39 372.34
  A 0.41 0.41 0.0 0 0 206.98 372.75
  L 206.98 398.57
  A 0.41 0.41 0.0 0 0 207.39 398.98
  L 224.53 398.98
  A 0.41 0.41 0.0 0 0 224.94 398.57
  L 224.94 394.99
  A 0.41 0.41 0.0 0 0 224.53 394.58
  L 212.66 394.58
  A 0.41 0.41 0.0 0 1 212.25 394.17
  L 212.25 387.73
  A 0.41 0.41 0.0 0 1 212.66 387.32
  L 222.71 387.32
  A 0.41 0.41 0.0 0 0 223.12 386.91
  L 223.12 383.40
  A 0.41 0.41 0.0 0 0 222.71 382.99
  L 212.66 382.99
  Z
  M 264.71 394.99
  A 0.41 0.41 0.0 0 0 264.30 394.58
  L 253.16 394.58
  A 0.41 0.41 0.0 0 1 252.75 394.17
  L 252.75 372.75
  A 0.41 0.41 0.0 0 0 252.34 372.34
  L 247.86 372.34
  A 0.41 0.41 0.0 0 0 247.45 372.75
  L 247.45 398.59
  A 0.41 0.41 0.0 0 0 247.86 399.00
  L 264.30 399.00
  A 0.41 0.41 0.0 0 0 264.71 398.59
  L 264.71 394.99
  Z
  M 291.99 393.91
  L 291.98 372.76
  A 0.42 0.42 0.0 0 0 291.56 372.34
  L 287.14 372.35
  A 0.44 0.43 -0.0 0 0 286.70 372.78
  L 286.68 398.35
  A 0.65 0.65 0.0 0 0 287.33 399.00
  L 303.48 399.00
  A 0.48 0.48 0.0 0 0 303.96 398.52
  L 303.95 394.99
  A 0.42 0.42 0.0 0 0 303.53 394.57
  L 292.68 394.60
  A 0.69 0.69 0.0 0 1 291.99 393.91
  Z
  M 335.48 392.85
  Q 339.04 392.86 339.84 392.86
  A 0.97 0.96 -9.2 0 1 340.74 393.51
  L 342.45 398.48
  A 0.78 0.77 80.5 0 0 343.18 399.01
  L 347.46 399.01
  A 0.43 0.43 0.0 0 0 347.87 398.44
  L 339.12 373.01
  A 0.93 0.92 81.2 0 0 338.28 372.39
  Q 336.75 372.35 335.50 372.35
  Q 334.25 372.35 332.72 372.38
  A 0.93 0.92 -81.1 0 0 331.88 373.00
  L 323.07 398.41
  A 0.43 0.43 0.0 0 0 323.48 398.98
  L 327.76 398.99
  A 0.78 0.77 -80.3 0 0 328.49 398.46
  L 330.21 393.50
  A 0.97 0.96 9.3 0 1 331.12 392.85
  Q 331.91 392.85 335.48 392.85
  Z
  M 192.87 433.42
  A 0.99 0.99 0.0 0 0 192.91 434.87
  Q 196.79 438.29 201.89 436.84
  C 206.37 435.57 207.02 428.74 202.52 427.45
  Q 197.74 426.07 197.31 425.93
  Q 196.42 425.64 196.35 424.52
  A 1.70 1.70 0.0 0 1 197.73 422.74
  Q 200.51 422.19 202.36 423.59
  A 0.87 0.86 -48.7 0 0 203.50 423.51
  L 204.48 422.53
  A 0.94 0.93 38.6 0 0 204.31 421.07
  Q 200.38 418.65 196.12 420.17
  C 191.92 421.67 191.78 427.67 196.24 429.00
  C 198.98 429.82 202.03 429.95 202.04 432.21
  A 1.98 1.98 0.0 0 1 200.32 434.18
  Q 196.94 434.62 195.05 432.27
  A 0.67 0.66 -41.8 0 0 194.06 432.22
  L 192.87 433.42
  Z
  M 120.85 428.76
  C 121.04 433.23 123.26 436.74 127.99 437.15
  Q 133.56 437.64 135.67 433.27
  A 0.84 0.83 -65.0 0 0 135.26 432.14
  L 133.72 431.46
  A 0.75 0.74 -66.3 0 0 132.72 431.86
  Q 131.44 434.92 127.54 434.07
  C 125.11 433.53 124.47 430.77 124.38 428.61
  C 124.28 426.45 124.69 423.65 127.06 422.90
  Q 130.87 421.72 132.41 424.66
  A 0.75 0.74 61.4 0 0 133.44 424.98
  L 134.92 424.16
  A 0.84 0.83 60.0 0 0 135.22 423.00
  Q 132.75 418.83 127.24 419.79
  C 122.56 420.61 120.66 424.30 120.85 428.76
  Z
  M 153.5000 427.0504
  A 7.23 7.23 0.0 0 0 146.3717 419.7202
  L 145.0318 419.7015
  A 7.23 7.23 0.0 0 0 137.7016 426.8298
  L 137.6600 429.8096
  A 7.23 7.23 0.0 0 0 144.7883 437.1398
  L 146.1282 437.1585
  A 7.23 7.23 0.0 0 0 153.4584 430.0302
  L 153.5000 427.0504
  Z
  M 164.07 437.25
  C 170.59 437.26 171.07 433.30 171.06 428.01
  Q 171.06 424.01 171.07 420.37
  A 0.53 0.53 0.0 0 0 170.54 419.84
  L 168.18 419.84
  A 0.49 0.48 -0.6 0 0 167.69 420.33
  Q 167.77 426.24 167.64 431.25
  A 3.05 3.04 80.8 0 1 165.65 434.02
  Q 165.11 434.22 164.08 434.22
  Q 163.05 434.21 162.50 434.02
  A 3.05 3.04 -80.7 0 1 160.52 431.24
  Q 160.40 426.23 160.49 420.32
  A 0.49 0.48 0.7 0 0 160.00 419.83
  L 157.64 419.83
  A 0.53 0.53 0.0 0 0 157.11 420.36
  Q 157.11 424.00 157.10 428.00
  C 157.08 433.29 157.56 437.25 164.07 437.25
  Z
  M 186.60 419.82
  A 0.31 0.31 0.0 0 0 186.29 420.13
  L 186.29 430.75
  A 0.31 0.31 0.0 0 1 185.71 430.91
  L 179.40 419.98
  A 0.31 0.31 0.0 0 0 179.13 419.82
  L 175.54 419.82
  A 0.31 0.31 0.0 0 0 175.23 420.13
  L 175.23 436.63
  A 0.31 0.31 0.0 0 0 175.54 436.94
  L 178.24 436.94
  A 0.31 0.31 0.0 0 0 178.55 436.63
  L 178.55 425.60
  A 0.31 0.31 0.0 0 1 179.13 425.44
  L 185.68 436.79
  A 0.31 0.31 0.0 0 0 185.95 436.95
  L 189.29 436.95
  A 0.31 0.31 0.0 0 0 189.60 436.64
  L 189.60 420.13
  A 0.31 0.31 0.0 0 0 189.29 419.82
  L 186.60 419.82
  Z
  M 212.51 426.67
  A 0.39 0.39 0.0 0 1 212.12 426.28
  L 212.12 423.12
  A 0.39 0.39 0.0 0 1 212.51 422.73
  L 219.74 422.73
  A 0.39 0.39 0.0 0 0 220.13 422.34
  L 220.13 420.22
  A 0.39 0.39 0.0 0 0 219.74 419.83
  L 209.10 419.83
  A 0.39 0.39 0.0 0 0 208.71 420.22
  L 208.71 436.60
  A 0.39 0.39 0.0 0 0 209.10 436.99
  L 219.93 436.99
  A 0.39 0.39 0.0 0 0 220.32 436.60
  L 220.32 434.53
  A 0.39 0.39 0.0 0 0 219.93 434.14
  L 212.51 434.14
  A 0.39 0.39 0.0 0 1 212.12 433.75
  L 212.12 429.90
  A 0.39 0.39 0.0 0 1 212.51 429.51
  L 218.72 429.51
  A 0.39 0.39 0.0 0 0 219.11 429.12
  L 219.11 427.06
  A 0.39 0.39 0.0 0 0 218.72 426.67
  L 212.51 426.67
  Z
  M 223.93 419.82
  A 0.48 0.48 0.0 0 0 223.45 420.30
  L 223.45 436.50
  A 0.48 0.48 0.0 0 0 223.93 436.98
  L 234.14 436.98
  A 0.48 0.48 0.0 0 0 234.62 436.50
  L 234.62 434.62
  A 0.48 0.48 0.0 0 0 234.14 434.14
  L 227.35 434.14
  A 0.48 0.48 0.0 0 1 226.87 433.66
  L 226.87 420.30
  A 0.48 0.48 0.0 0 0 226.39 419.82
  L 223.93 419.82
  Z
  M 240.89 420.25
  A 0.43 0.43 0.0 0 0 240.46 419.82
  L 237.86 419.82
  A 0.43 0.43 0.0 0 0 237.43 420.25
  L 237.43 436.57
  A 0.43 0.43 0.0 0 0 237.86 437.00
  L 240.46 437.00
  A 0.43 0.43 0.0 0 0 240.89 436.57
  L 240.89 420.25
  Z
  M 255.78 430.64
  L 249.35 420.27
  A 1.01 0.99 -15.6 0 0 248.50 419.80
  L 245.71 419.79
  A 0.51 0.51 0.0 0 0 245.20 420.29
  L 245.20 436.50
  A 0.49 0.49 0.0 0 0 245.71 436.99
  L 248.07 436.97
  A 0.49 0.48 90.0 0 0 248.55 436.48
  L 248.53 425.78
  A 0.25 0.25 0.0 0 1 249.00 425.65
  L 255.75 436.58
  A 0.87 0.86 74.1 0 0 256.46 436.98
  L 259.09 436.99
  A 0.52 0.52 0.0 0 0 259.61 436.47
  L 259.61 420.25
  A 0.46 0.46 0.0 0 0 259.14 419.78
  L 256.73 419.80
  A 0.45 0.44 -0.7 0 0 256.29 420.24
  L 256.30 430.49
  A 0.28 0.28 0.0 0 1 255.78 430.64
  Z
  M 274.66 435.11
  L 274.66 436.48
  A 0.52 0.52 0.0 0 0 275.18 437.00
  L 277.39 437.00
  A 0.53 0.53 0.0 0 0 277.92 436.47
  L 277.92 428.08
  A 0.56 0.56 0.0 0 0 277.36 427.52
  L 271.04 427.52
  A 0.60 0.59 0.0 0 0 270.44 428.11
  L 270.44 429.74
  A 0.58 0.58 0.0 0 0 271.02 430.32
  L 273.79 430.32
  A 0.66 0.65 -3.5 0 1 274.44 430.89
  C 274.98 435.45 267.55 435.63 266.80 430.64
  C 266.26 427.04 266.60 422.56 271.24 422.58
  Q 273.74 422.59 274.71 424.32
  A 0.70 0.69 -29.5 0 0 275.67 424.58
  L 277.28 423.65
  A 0.70 0.70 0.0 0 0 277.54 422.69
  C 275.06 418.27 267.00 418.82 264.43 422.98
  C 261.95 427.01 262.62 435.00 267.60 436.79
  Q 271.91 438.34 274.34 435.00
  A 0.18 0.18 0.0 0 1 274.66 435.11
  Z
  M 286.59 428.77
  C 286.79 433.24 289.01 436.74 293.74 437.14
  Q 299.31 437.62 301.41 433.25
  A 0.84 0.83 -65.1 0 0 301.00 432.12
  L 299.46 431.44
  A 0.75 0.74 -66.4 0 0 298.46 431.84
  Q 297.19 434.91 293.29 434.06
  C 290.86 433.53 290.21 430.77 290.12 428.61
  C 290.02 426.45 290.42 423.65 292.79 422.90
  Q 296.60 421.71 298.14 424.65
  A 0.75 0.74 61.3 0 0 299.17 424.96
  L 300.64 424.15
  A 0.84 0.83 59.9 0 0 300.95 422.98
  Q 298.47 418.82 292.97 419.79
  C 288.29 420.61 286.39 424.30 286.59 428.77
  Z
  M 308.02 422.72
  L 315.17 422.75
  A 0.46 0.45 -88.8 0 0 315.63 422.29
  L 315.64 420.36
  A 0.51 0.51 0.0 0 0 315.13 419.84
  L 304.83 419.83
  A 0.62 0.61 -89.6 0 0 304.21 420.45
  L 304.21 436.42
  A 0.58 0.57 90.0 0 0 304.78 437.00
  L 315.32 436.97
  A 0.52 0.52 0.0 0 0 315.84 436.44
  L 315.83 434.54
  A 0.43 0.43 0.0 0 0 315.40 434.12
  L 307.98 434.16
  A 0.36 0.36 0.0 0 1 307.62 433.80
  L 307.64 429.81
  A 0.32 0.32 0.0 0 1 307.96 429.49
  L 314.12 429.52
  A 0.49 0.49 0.0 0 0 314.60 429.04
  L 314.64 427.13
  A 0.46 0.46 0.0 0 0 314.18 426.66
  L 307.96 426.67
  A 0.36 0.35 0.7 0 1 307.60 426.31
  L 307.64 423.09
  A 0.38 0.37 -0.0 0 1 308.02 422.72
  Z
  M 329.53 430.63
  L 323.13 420.29
  A 1.00 0.99 -15.6 0 0 322.28 419.82
  L 319.51 419.81
  A 0.51 0.51 0.0 0 0 319.00 420.31
  L 318.98 436.45
  A 0.49 0.49 0.0 0 0 319.48 436.94
  L 321.84 436.93
  A 0.49 0.48 -90.0 0 0 322.32 436.44
  L 322.31 425.78
  A 0.25 0.25 0.0 0 1 322.77 425.65
  L 329.49 436.55
  A 0.87 0.86 74.2 0 0 330.20 436.95
  L 332.81 436.96
  A 0.52 0.52 0.0 0 0 333.33 436.44
  L 333.35 420.27
  A 0.46 0.46 0.0 0 0 332.89 419.81
  L 330.48 419.82
  A 0.45 0.44 -0.6 0 0 330.04 420.26
  L 330.04 430.48
  A 0.28 0.28 0.0 0 1 329.53 430.63
  Z
  M 342.87 436.98
  Q 343.63 436.98 343.94 436.97
  A 0.66 0.65 -0.5 0 0 344.58 436.32
  L 344.58 423.22
  A 0.48 0.48 0.0 0 1 345.06 422.74
  L 349.04 422.74
  A 0.47 0.47 0.0 0 0 349.51 422.28
  L 349.54 420.34
  A 0.49 0.49 0.0 0 0 349.03 419.84
  Q 348.99 419.84 342.86 419.84
  Q 336.73 419.85 336.69 419.84
  A 0.49 0.49 0.0 0 0 336.18 420.34
  L 336.21 422.28
  A 0.47 0.47 0.0 0 0 336.68 422.74
  L 340.66 422.74
  A 0.48 0.48 0.0 0 1 341.15 423.22
  L 341.15 436.32
  A 0.66 0.65 0.5 0 0 341.80 436.97
  Q 342.10 436.98 342.87 436.98
  Z
  M 355.80 422.72
  L 362.94 422.76
  A 0.46 0.45 -88.7 0 0 363.40 422.31
  L 363.41 420.37
  A 0.51 0.51 0.0 0 0 362.90 419.85
  L 352.61 419.83
  A 0.62 0.61 -89.5 0 0 351.99 420.45
  L 351.97 436.41
  A 0.58 0.57 -90.0 0 0 352.54 436.99
  L 363.07 436.98
  A 0.52 0.52 0.0 0 0 363.59 436.45
  L 363.58 434.55
  A 0.43 0.43 0.0 0 0 363.15 434.13
  L 355.74 434.15
  A 0.36 0.36 0.0 0 1 355.38 433.79
  L 355.40 429.81
  A 0.32 0.32 0.0 0 1 355.72 429.49
  L 361.88 429.53
  A 0.49 0.49 0.0 0 0 362.37 429.05
  L 362.41 427.14
  A 0.46 0.46 0.0 0 0 361.95 426.67
  L 355.73 426.67
  A 0.36 0.35 0.8 0 1 355.37 426.31
  L 355.42 423.09
  A 0.38 0.37 0.0 0 1 355.80 422.72
  Z
  M 376.50 428.19
  C 380.60 426.46 379.46 420.33 374.74 419.98
  Q 371.52 419.75 367.07 419.87
  A 0.38 0.38 0.0 0 0 366.70 420.25
  L 366.70 436.51
  A 0.50 0.49 0.0 0 0 367.20 437.00
  L 369.66 437.00
  A 0.46 0.46 0.0 0 0 370.12 436.54
  L 370.12 430.51
  A 0.70 0.70 0.0 0 1 370.77 429.81
  Q 373.13 429.65 374.16 430.85
  A 0.42 0.38 -78.7 0 1 374.26 431.02
  L 376.20 436.64
  A 0.52 0.50 80.3 0 0 376.68 436.99
  L 379.36 436.99
  A 0.27 0.27 0.0 0 0 379.62 436.66
  Q 378.38 431.45 376.32 428.90
  A 0.46 0.45 -31.2 0 1 376.50 428.19
  Z"
/>
<path fill="#ce215d" d="
  M 223.27 77.52
  C 225.46 72.14 226.68 67.95 231.00 63.51
  C 235.80 58.57 240.43 61.43 244.40 65.61
  Q 249.61 71.12 249.62 78.03
  Q 249.80 183.29 249.99 214.85
  Q 250.03 222.64 249.88 224.16
  Q 248.92 233.62 242.99 241.08
  C 233.56 252.96 216.70 252.92 203.75 247.95
  C 191.88 243.40 185.48 233.58 187.35 220.60
  A 1.62 1.61 23.0 0 0 186.73 219.08
  C 183.64 216.73 181.01 214.56 179.31 211.52
  C 175.27 204.29 178.25 196.27 183.41 190.50
  A 0.73 0.73 0.0 0 0 183.21 189.36
  C 169.14 181.97 168.86 167.63 176.00 154.95
  Q 179.27 149.16 184.45 143.02
  A 1.61 1.60 -36.6 0 0 184.70 141.36
  C 183.22 137.90 181.92 134.28 182.25 130.79
  C 182.80 124.70 187.10 119.75 192.33 116.91
  A 1.95 1.94 74.0 0 0 193.34 115.10
  C 192.72 103.28 193.57 86.92 205.27 80.15
  C 210.41 77.18 216.26 77.23 222.29 78.09
  A 0.92 0.92 0.0 0 0 223.27 77.52
  Z
  M 192.57 205.63
  A 0.34 0.34 0.0 0 1 193.22 205.78
  Q 192.91 212.21 192.16 221.49
  C 191.50 229.52 192.87 236.31 199.88 240.59
  Q 209.30 246.33 221.28 246.07
  C 235.32 245.76 243.34 237.16 244.97 223.95
  Q 245.60 218.85 245.59 214.00
  Q 245.50 147.35 245.08 80.00
  Q 245.05 75.53 244.28 73.93
  Q 241.77 68.75 236.93 65.77
  A 1.18 1.17 40.2 0 0 235.54 65.88
  C 230.33 70.45 228.55 77.01 226.36 83.62
  A 0.62 0.62 0.0 0 1 225.64 84.03
  C 222.50 83.36 218.35 82.09 215.12 82.31
  C 196.76 83.56 197.53 105.93 198.68 119.09
  A 0.74 0.73 76.8 0 1 198.22 119.84
  C 192.14 122.22 186.43 126.04 187.04 133.07
  C 187.33 136.38 189.06 139.13 190.82 142.01
  A 1.00 1.00 0.0 0 1 190.71 143.21
  C 182.16 152.52 167.98 171.79 182.04 182.79
  Q 186.30 186.13 189.86 187.84
  A 1.15 1.15 0.0 0 1 190.34 189.47
  C 188.41 192.70 184.73 196.10 183.24 199.69
  Q 179.61 208.40 188.35 214.26
  A 0.30 0.29 -61.6 0 0 188.78 214.13
  L 192.57 205.63
  Z"
/>
<path fill="#44a3b4" d="
  M 285.71 78.05
  C 291.75 77.19 297.60 77.14 302.75 80.11
  C 314.46 86.88 315.32 103.25 314.70 115.08
  A 1.95 1.95 0.0 0 0 315.71 116.90
  C 320.95 119.74 325.26 124.69 325.81 130.78
  C 326.14 134.28 324.84 137.90 323.36 141.36
  A 1.61 1.61 0.0 0 0 323.61 143.03
  Q 328.80 149.17 332.07 154.96
  C 339.22 167.65 338.95 182.01 324.87 189.41
  A 0.74 0.73 55.0 0 0 324.67 190.55
  C 329.84 196.32 332.82 204.35 328.78 211.59
  C 327.08 214.63 324.45 216.80 321.36 219.16
  A 1.62 1.61 -23.0 0 0 320.74 220.68
  C 322.61 233.67 316.21 243.50 304.33 248.06
  C 291.37 253.04 274.50 253.08 265.05 241.20
  Q 259.12 233.73 258.15 224.26
  Q 258.00 222.74 258.04 214.95
  Q 258.22 183.36 258.36 78.00
  Q 258.37 71.08 263.58 65.57
  C 267.55 61.38 272.18 58.52 276.99 63.46
  C 281.32 67.90 282.54 72.10 284.73 77.48
  A 0.92 0.92 0.0 0 0 285.71 78.05
  Z
  M 314.63 206.52
  A 0.45 0.45 0.0 0 1 315.43 206.29
  Q 317.72 209.27 318.91 213.31
  A 0.78 0.78 0.0 0 0 320.12 213.73
  C 327.53 208.43 326.61 200.96 321.36 194.76
  Q 319.38 192.41 317.18 189.12
  A 0.57 0.56 -33.0 0 1 317.35 188.33
  Q 320.46 186.41 324.63 183.67
  C 340.70 173.12 325.75 152.59 317.02 143.23
  A 1.11 1.10 41.4 0 1 316.93 141.84
  C 324.20 131.57 320.38 124.13 309.75 119.83
  A 1.32 1.31 -75.2 0 1 308.94 118.43
  C 310.84 105.19 310.29 81.80 290.95 82.45
  C 288.56 82.53 285.31 83.47 283.13 84.12
  A 1.27 1.26 -18.1 0 1 281.57 83.33
  C 279.68 77.99 277.73 71.87 274.14 67.46
  A 2.89 2.79 85.3 0 0 273.47 66.87
  C 269.19 64.26 264.15 72.02 263.43 75.00
  A 4.80 4.09 58.8 0 0 263.31 75.74
  Q 262.71 83.14 262.68 86.44
  Q 262.26 131.95 262.37 175.76
  C 262.40 187.11 261.90 205.14 262.49 217.77
  Q 262.88 225.85 264.59 230.50
  Q 270.35 246.17 287.49 246.03
  C 300.22 245.92 316.34 240.42 315.99 225.22
  Q 315.85 219.24 314.75 211.28
  Q 314.42 208.83 314.63 206.52
  Z"
/>
<path fill="#ffffff" d="
  M 192.57 205.63
  L 188.78 214.13
  A 0.30 0.29 -61.6 0 1 188.35 214.26
  Q 179.61 208.40 183.24 199.69
  C 184.73 196.10 188.41 192.70 190.34 189.47
  A 1.15 1.15 0.0 0 0 189.86 187.84
  Q 186.30 186.13 182.04 182.79
  C 167.98 171.79 182.16 152.52 190.71 143.21
  A 1.00 1.00 0.0 0 0 190.82 142.01
  C 189.06 139.13 187.33 136.38 187.04 133.07
  C 186.43 126.04 192.14 122.22 198.22 119.84
  A 0.74 0.73 76.8 0 0 198.68 119.09
  C 197.53 105.93 196.76 83.56 215.12 82.31
  C 218.35 82.09 222.50 83.36 225.64 84.03
  A 0.62 0.62 0.0 0 0 226.36 83.62
  C 228.55 77.01 230.33 70.45 235.54 65.88
  A 1.18 1.17 40.2 0 1 236.93 65.77
  Q 241.77 68.75 244.28 73.93
  Q 245.05 75.53 245.08 80.00
  Q 245.50 147.35 245.59 214.00
  Q 245.60 218.85 244.97 223.95
  C 243.34 237.16 235.32 245.76 221.28 246.07
  Q 209.30 246.33 199.88 240.59
  C 192.87 236.31 191.50 229.52 192.16 221.49
  Q 192.91 212.21 193.22 205.78
  A 0.34 0.34 0.0 0 0 192.57 205.63
  Z
  M 228.93 139.90
  Q 226.34 128.32 225.99 116.30
  C 225.80 109.88 229.09 102.29 232.05 93.93
  Q 232.15 93.64 232.02 93.47
  A 0.37 0.37 0.0 0 0 231.48 93.43
  Q 223.76 100.78 221.50 111.07
  A 0.54 0.54 0.0 0 1 220.59 111.33
  C 216.42 107.15 214.30 101.33 212.64 95.27
  Q 212.52 94.84 212.17 94.61
  A 0.32 0.32 0.0 0 0 211.68 94.81
  Q 209.47 105.58 216.06 113.52
  C 217.26 114.97 219.26 116.43 220.59 117.65
  A 1.35 1.34 -70.9 0 1 221.02 118.54
  Q 222.00 130.13 228.65 140.03
  A 0.16 0.16 0.0 0 0 228.93 139.90
  Z
  M 233.08 173.26
  C 230.51 166.44 227.26 159.56 221.66 154.39
  C 216.17 149.32 210.12 148.40 202.92 149.91
  A 0.49 0.49 0.0 0 0 202.84 150.85
  Q 203.05 150.94 210.61 153.34
  C 214.35 154.53 218.36 157.66 221.68 161.14
  Q 227.28 167.03 232.65 173.51
  A 0.25 0.25 0.0 0 0 233.08 173.26
  Z
  M 209.68 205.71
  L 218.11 202.81
  A 0.92 0.91 -31.6 0 1 219.05 203.03
  C 222.68 206.60 224.53 211.19 227.22 216.66
  A 0.44 0.43 36.6 0 0 228.04 216.54
  Q 229.74 206.03 221.88 199.49
  A 0.85 0.85 0.0 0 1 221.63 198.53
  Q 225.41 188.56 222.70 177.59
  Q 222.49 176.76 222.21 176.48
  A 0.19 0.19 0.0 0 0 221.89 176.61
  C 221.65 181.27 220.60 189.17 218.42 193.51
  Q 215.10 200.10 209.43 205.30
  A 0.25 0.24 13.9 0 0 209.68 205.71
  Z"
/>
<path fill="#ffffff" d="
  M 314.63 206.52
  Q 314.42 208.83 314.75 211.28
  Q 315.85 219.24 315.99 225.22
  C 316.34 240.42 300.22 245.92 287.49 246.03
  Q 270.35 246.17 264.59 230.50
  Q 262.88 225.85 262.49 217.77
  C 261.90 205.14 262.40 187.11 262.37 175.76
  Q 262.26 131.95 262.68 86.44
  Q 262.71 83.14 263.31 75.74
  A 4.80 4.09 58.8 0 1 263.43 75.00
  C 264.15 72.02 269.19 64.26 273.47 66.87
  A 2.89 2.79 85.3 0 1 274.14 67.46
  C 277.73 71.87 279.68 77.99 281.57 83.33
  A 1.27 1.26 -18.1 0 0 283.13 84.12
  C 285.31 83.47 288.56 82.53 290.95 82.45
  C 310.29 81.80 310.84 105.19 308.94 118.43
  A 1.32 1.31 -75.2 0 0 309.75 119.83
  C 320.38 124.13 324.20 131.57 316.93 141.84
  A 1.11 1.10 41.4 0 0 317.02 143.23
  C 325.75 152.59 340.70 173.12 324.63 183.67
  Q 320.46 186.41 317.35 188.33
  A 0.57 0.56 -33.0 0 0 317.18 189.12
  Q 319.38 192.41 321.36 194.76
  C 326.61 200.96 327.53 208.43 320.12 213.73
  A 0.78 0.78 0.0 0 1 318.91 213.31
  Q 317.72 209.27 315.43 206.29
  A 0.45 0.45 0.0 0 0 314.63 206.52
  Z
  M 278.99 139.94
  A 0.16 0.16 0.0 0 0 279.28 140.07
  Q 285.93 130.14 286.89 118.52
  A 1.35 1.35 0.0 0 1 287.32 117.63
  C 288.66 116.40 290.66 114.93 291.86 113.48
  Q 298.45 105.51 296.22 94.72
  A 0.32 0.32 0.0 0 0 295.73 94.52
  Q 295.38 94.75 295.26 95.18
  C 293.61 101.26 291.49 107.09 287.32 111.29
  A 0.55 0.54 -29.1 0 1 286.40 111.03
  Q 284.12 100.72 276.37 93.36
  A 0.37 0.37 0.0 0 0 275.83 93.40
  Q 275.70 93.57 275.80 93.86
  C 278.78 102.24 282.09 109.84 281.91 116.28
  Q 281.57 128.33 278.99 139.94
  Z
  M 275.87 172.26
  Q 276.35 172.13 276.61 171.86
  Q 278.51 169.87 287.02 160.53
  Q 291.62 155.47 297.27 153.52
  Q 300.04 152.57 302.47 151.38
  A 1.10 1.10 0.0 0 0 302.44 149.39
  Q 301.33 148.89 299.12 149.02
  C 286.28 149.78 279.50 160.52 275.47 171.83
  A 0.33 0.33 0.0 0 0 275.87 172.26
  Z
  M 298.02 205.01
  Q 297.53 204.40 293.01 199.02
  C 288.39 193.50 286.81 185.08 286.09 177.70
  A 0.32 0.32 0.0 0 0 285.48 177.61
  Q 282.63 184.67 284.43 192.12
  Q 285.15 195.08 285.96 198.36
  A 1.20 1.20 0.0 0 1 285.71 199.43
  L 281.94 203.90
  A 4.58 4.38 76.3 0 0 281.13 205.30
  Q 279.20 210.59 280.01 216.41
  A 0.46 0.46 0.0 0 0 280.87 216.55
  Q 283.21 212.00 283.90 210.36
  C 284.95 207.88 286.79 205.67 288.73 203.25
  A 1.03 1.03 0.0 0 1 289.86 202.92
  L 297.57 205.63
  A 0.40 0.40 0.0 0 0 298.02 205.01
  Z"
/>
<path fill="#44a3b4" d="
  M 278.99 139.94
  Q 281.57 128.33 281.91 116.28
  C 282.09 109.84 278.78 102.24 275.80 93.86
  Q 275.70 93.57 275.83 93.40
  A 0.37 0.37 0.0 0 1 276.37 93.36
  Q 284.12 100.72 286.40 111.03
  A 0.55 0.54 -29.1 0 0 287.32 111.29
  C 291.49 107.09 293.61 101.26 295.26 95.18
  Q 295.38 94.75 295.73 94.52
  A 0.32 0.32 0.0 0 1 296.22 94.72
  Q 298.45 105.51 291.86 113.48
  C 290.66 114.93 288.66 116.40 287.32 117.63
  A 1.35 1.35 0.0 0 0 286.89 118.52
  Q 285.93 130.14 279.28 140.07
  A 0.16 0.16 0.0 0 1 278.99 139.94
  Z"
/>
<path fill="#ce215d" d="
  M 228.93 139.90
  A 0.16 0.16 0.0 0 1 228.65 140.03
  Q 222.00 130.13 221.02 118.54
  A 1.35 1.34 -70.9 0 0 220.59 117.65
  C 219.26 116.43 217.26 114.97 216.06 113.52
  Q 209.47 105.58 211.68 94.81
  A 0.32 0.32 0.0 0 1 212.17 94.61
  Q 212.52 94.84 212.64 95.27
  C 214.30 101.33 216.42 107.15 220.59 111.33
  A 0.54 0.54 0.0 0 0 221.50 111.07
  Q 223.76 100.78 231.48 93.43
  A 0.37 0.37 0.0 0 1 232.02 93.47
  Q 232.15 93.64 232.05 93.93
  C 229.09 102.29 225.80 109.88 225.99 116.30
  Q 226.34 128.32 228.93 139.90
  Z"
/>
<path fill="#44a3b4" d="
  M 275.87 172.26
  A 0.33 0.33 0.0 0 1 275.47 171.83
  C 279.50 160.52 286.28 149.78 299.12 149.02
  Q 301.33 148.89 302.44 149.39
  A 1.10 1.10 0.0 0 1 302.47 151.38
  Q 300.04 152.57 297.27 153.52
  Q 291.62 155.47 287.02 160.53
  Q 278.51 169.87 276.61 171.86
  Q 276.35 172.13 275.87 172.26
  Z"
/>
<path fill="#ce215d" d="
  M 233.08 173.26
  A 0.25 0.25 0.0 0 1 232.65 173.51
  Q 227.28 167.03 221.68 161.14
  C 218.36 157.66 214.35 154.53 210.61 153.34
  Q 203.05 150.94 202.84 150.85
  A 0.49 0.49 0.0 0 1 202.92 149.91
  C 210.12 148.40 216.17 149.32 221.66 154.39
  C 227.26 159.56 230.51 166.44 233.08 173.26
  Z"
/>
<path fill="#ce215d" d="
  M 209.68 205.71
  A 0.25 0.24 13.9 0 1 209.43 205.30
  Q 215.10 200.10 218.42 193.51
  C 220.60 189.17 221.65 181.27 221.89 176.61
  A 0.19 0.19 0.0 0 1 222.21 176.48
  Q 222.49 176.76 222.70 177.59
  Q 225.41 188.56 221.63 198.53
  A 0.85 0.85 0.0 0 0 221.88 199.49
  Q 229.74 206.03 228.04 216.54
  A 0.44 0.43 36.6 0 1 227.22 216.66
  C 224.53 211.19 222.68 206.60 219.05 203.03
  A 0.92 0.91 -31.6 0 0 218.11 202.81
  L 209.68 205.71
  Z"
/>
<path fill="#44a3b4" d="
  M 297.57 205.63
  L 289.86 202.92
  A 1.03 1.03 0.0 0 0 288.73 203.25
  C 286.79 205.67 284.95 207.88 283.90 210.36
  Q 283.21 212.00 280.87 216.55
  A 0.46 0.46 0.0 0 1 280.01 216.41
  Q 279.20 210.59 281.13 205.30
  A 4.58 4.38 76.3 0 1 281.94 203.90
  L 285.71 199.43
  A 1.20 1.20 0.0 0 0 285.96 198.36
  Q 285.15 195.08 284.43 192.12
  Q 282.63 184.67 285.48 177.61
  A 0.32 0.32 0.0 0 1 286.09 177.70
  C 286.81 185.08 288.39 193.50 293.01 199.02
  Q 297.53 204.40 298.02 205.01
  A 0.40 0.40 0.0 0 1 297.57 205.63
  Z"
/>
<path fill="#151515" d="
  M 215.18 343.10
  A 0.86 0.84 8.5 0 1 214.61 342.35
  L 213.41 324.38
  A 3.03 3.01 11.4 0 0 211.74 321.89
  Q 199.22 315.65 186.33 308.64
  Q 182.55 306.59 181.14 301.85
  Q 172.79 273.95 172.20 272.07
  Q 170.06 265.35 168.49 260.29
  C 167.09 255.77 166.86 250.24 172.81 249.65
  Q 174.47 249.48 175.98 251.09
  C 183.10 258.60 188.97 267.87 193.75 277.05
  A 1.01 0.99 78.0 0 0 194.56 277.59
  Q 195.57 277.68 197.76 277.38
  C 201.38 276.90 203.69 277.99 206.36 280.67
  C 210.91 285.25 214.88 290.26 219.94 296.60
  A 3.36 3.36 0.0 0 0 222.23 297.85
  Q 225.55 298.19 231.13 298.17
  C 235.24 298.14 237.56 302.47 238.80 305.71
  Q 243.34 317.66 244.70 329.99
  A 1.23 1.23 0.0 0 1 243.56 331.36
  L 242.25 331.45
  A 1.02 1.01 84.2 0 1 241.18 330.57
  C 240.01 321.57 237.85 311.01 232.92 302.61
  A 1.81 1.79 73.0 0 0 231.25 301.71
  C 217.00 302.52 198.51 296.75 192.21 282.52
  C 187.77 272.47 182.61 265.16 174.96 254.84
  Q 173.82 253.29 172.01 252.97
  A 0.54 0.54 0.0 0 0 171.37 253.51
  Q 171.44 257.69 173.03 262.35
  C 177.62 275.81 180.71 288.51 184.91 301.57
  C 185.51 303.43 186.42 304.54 188.09 305.46
  Q 201.15 312.77 216.07 320.01
  A 1.16 1.15 -79.0 0 1 216.72 320.98
  L 218.21 343.15
  A 0.68 0.67 7.6 0 1 217.32 343.83
  L 215.18 343.10
  Z
  M 214.19 295.56
  Q 214.25 295.35 214.07 295.11
  Q 209.71 289.29 203.64 283.08
  Q 200.65 280.02 196.07 281.49
  A 0.49 0.49 0.0 0 0 195.79 282.19
  C 199.74 289.33 206.22 293.09 213.66 295.84
  A 0.41 0.40 17.0 0 0 214.19 295.56
  Z"
/>
<path fill="#151515" d="
  M 287.14 342.98
  L 288.64 320.90
  A 1.15 1.14 79.1 0 1 289.29 319.93
  Q 304.16 312.73 317.18 305.47
  C 318.84 304.55 319.75 303.45 320.35 301.59
  C 324.54 288.59 327.63 275.94 332.22 262.54
  Q 333.81 257.90 333.88 253.74
  A 0.54 0.54 0.0 0 0 333.24 253.20
  Q 331.44 253.52 330.30 255.06
  C 322.67 265.33 317.53 272.61 313.09 282.61
  C 306.81 296.78 288.38 302.51 274.19 301.69
  A 1.80 1.78 -72.9 0 0 272.53 302.58
  C 267.61 310.95 265.45 321.46 264.27 330.43
  A 1.01 1.00 -84.2 0 1 263.21 331.30
  L 261.90 331.21
  A 1.23 1.22 -84.8 0 1 260.77 329.85
  Q 262.13 317.57 266.67 305.67
  C 267.90 302.44 270.22 298.13 274.31 298.16
  Q 279.87 298.19 283.18 297.85
  A 3.35 3.34 -73.5 0 0 285.46 296.61
  C 290.51 290.30 294.47 285.31 299.00 280.76
  C 301.66 278.09 303.97 277.01 307.57 277.49
  Q 309.75 277.79 310.76 277.70
  A 1.01 0.99 -78.0 0 0 311.57 277.16
  C 316.34 268.02 322.19 258.80 329.29 251.32
  Q 330.80 249.72 332.45 249.89
  C 338.38 250.48 338.14 255.99 336.74 260.49
  Q 335.17 265.53 333.04 272.22
  Q 332.45 274.09 324.10 301.88
  Q 322.69 306.60 318.93 308.64
  Q 306.08 315.61 293.60 321.81
  A 3.02 3.00 -11.3 0 0 291.94 324.29
  L 290.73 342.18
  A 0.86 0.84 -8.4 0 1 290.16 342.93
  L 288.03 343.66
  A 0.67 0.67 0.0 0 1 287.14 342.98
  Z
  M 291.29 295.52
  A 0.40 0.40 0.0 0 0 291.82 295.79
  C 299.15 293.01 305.52 289.23 309.37 282.14
  A 0.48 0.48 0.0 0 0 309.09 281.45
  Q 304.54 280.04 301.61 283.09
  Q 295.67 289.28 291.40 295.07
  Q 291.23 295.31 291.29 295.52
  Z"
/>
<path fill="#ffffff" d="
  M 214.19 295.56
  A 0.41 0.40 17.0 0 1 213.66 295.84
  C 206.22 293.09 199.74 289.33 195.79 282.19
  A 0.49 0.49 0.0 0 1 196.07 281.49
  Q 200.65 280.02 203.64 283.08
  Q 209.71 289.29 214.07 295.11
  Q 214.25 295.35 214.19 295.56
  Z"
/>
<path fill="#ffffff" d="
  M 291.29 295.52
  Q 291.23 295.31 291.40 295.07
  Q 295.67 289.28 301.61 283.09
  Q 304.54 280.04 309.09 281.45
  A 0.48 0.48 0.0 0 1 309.37 282.14
  C 305.52 289.23 299.15 293.01 291.82 295.79
  A 0.40 0.40 0.0 0 1 291.29 295.52
  Z"
/>
<path fill="#ce215d" d="
  M 168.66 391.77
  Q 168.93 391.77 169.03 391.48
  Q 172.15 382.36 175.44 372.92
  A 0.82 0.81 -80.4 0 1 176.21 372.37
  L 181.80 372.37
  A 0.60 0.60 0.0 0 1 182.40 372.97
  L 182.40 398.51
  A 0.52 0.52 0.0 0 1 181.88 399.03
  L 177.97 399.03
  A 0.51 0.51 0.0 0 1 177.46 398.52
  L 177.46 381.63
  A 0.25 0.25 0.0 0 0 176.98 381.55
  L 171.09 398.32
  A 1.04 1.04 0.0 0 1 170.40 398.97
  Q 170.25 399.01 168.63 399.00
  Q 167.01 399.00 166.87 398.95
  A 1.04 1.04 0.0 0 1 166.18 398.30
  L 160.40 381.50
  A 0.25 0.25 0.0 0 0 159.92 381.57
  L 159.81 398.46
  A 0.51 0.51 0.0 0 1 159.30 398.97
  L 155.39 398.94
  A 0.52 0.52 0.0 0 1 154.87 398.42
  L 155.04 372.88
  A 0.60 0.60 0.0 0 1 155.64 372.28
  L 161.23 372.32
  A 0.82 0.81 80.8 0 1 162.00 372.88
  Q 165.22 382.34 168.29 391.48
  Q 168.38 391.77 168.66 391.77
  Z"
/>
<path fill="#ce215d" d="
  M 212.66 382.99
  L 222.71 382.99
  A 0.41 0.41 0.0 0 1 223.12 383.40
  L 223.12 386.91
  A 0.41 0.41 0.0 0 1 222.71 387.32
  L 212.66 387.32
  A 0.41 0.41 0.0 0 0 212.25 387.73
  L 212.25 394.17
  A 0.41 0.41 0.0 0 0 212.66 394.58
  L 224.53 394.58
  A 0.41 0.41 0.0 0 1 224.94 394.99
  L 224.94 398.57
  A 0.41 0.41 0.0 0 1 224.53 398.98
  L 207.39 398.98
  A 0.41 0.41 0.0 0 1 206.98 398.57
  L 206.98 372.75
  A 0.41 0.41 0.0 0 1 207.39 372.34
  L 224.26 372.34
  A 0.41 0.41 0.0 0 1 224.67 372.75
  L 224.67 376.37
  A 0.41 0.41 0.0 0 1 224.26 376.78
  L 212.66 376.78
  A 0.41 0.41 0.0 0 0 212.25 377.19
  L 212.25 382.58
  A 0.41 0.41 0.0 0 0 212.66 382.99
  Z"
/>
<path fill="#ce215d" d="
  M 264.71 394.99
  L 264.71 398.59
  A 0.41 0.41 0.0 0 1 264.30 399.00
  L 247.86 399.00
  A 0.41 0.41 0.0 0 1 247.45 398.59
  L 247.45 372.75
  A 0.41 0.41 0.0 0 1 247.86 372.34
  L 252.34 372.34
  A 0.41 0.41 0.0 0 1 252.75 372.75
  L 252.75 394.17
  A 0.41 0.41 0.0 0 0 253.16 394.58
  L 264.30 394.58
  A 0.41 0.41 0.0 0 1 264.71 394.99
  Z"
/>
<path fill="#ce215d" d="
  M 291.99 393.91
  A 0.69 0.69 0.0 0 0 292.68 394.60
  L 303.53 394.57
  A 0.42 0.42 0.0 0 1 303.95 394.99
  L 303.96 398.52
  A 0.48 0.48 0.0 0 1 303.48 399.00
  L 287.33 399.00
  A 0.65 0.65 0.0 0 1 286.68 398.35
  L 286.70 372.78
  A 0.44 0.43 -0.0 0 1 287.14 372.35
  L 291.56 372.34
  A 0.42 0.42 0.0 0 1 291.98 372.76
  L 291.99 393.91
  Z"
/>
<path fill="#ce215d" d="
  M 335.50 372.35
  Q 336.75 372.35 338.28 372.39
  A 0.93 0.92 81.2 0 1 339.12 373.01
  L 347.87 398.44
  A 0.43 0.43 0.0 0 1 347.46 399.01
  L 343.18 399.01
  A 0.78 0.77 80.5 0 1 342.45 398.48
  L 340.74 393.51
  A 0.97 0.96 -9.2 0 0 339.84 392.86
  Q 339.04 392.86 335.48 392.85
  Q 331.91 392.85 331.12 392.85
  A 0.97 0.96 9.3 0 0 330.21 393.50
  L 328.49 398.46
  A 0.78 0.77 -80.3 0 1 327.76 398.99
  L 323.48 398.98
  A 0.43 0.43 0.0 0 1 323.07 398.41
  L 331.88 373.00
  A 0.93 0.92 -81.1 0 1 332.72 372.38
  Q 334.25 372.35 335.50 372.35
  Z
  M 331.89 387.95
  A 0.35 0.35 0.0 0 0 332.23 388.40
  L 338.56 388.42
  A 0.35 0.35 0.0 0 0 338.89 387.96
  L 335.74 378.27
  A 0.35 0.35 0.0 0 0 335.08 378.27
  L 331.89 387.95
  Z"
/>
<path fill="#ffffff" d="
  M 331.89 387.95
  L 335.08 378.27
  A 0.35 0.35 0.0 0 1 335.74 378.27
  L 338.89 387.96
  A 0.35 0.35 0.0 0 1 338.56 388.42
  L 332.23 388.40
  A 0.35 0.35 0.0 0 1 331.89 387.95
  Z"
/>
<path fill="#44a3b4" d="
  M 195.05 432.27
  Q 196.94 434.62 200.32 434.18
  A 1.98 1.98 0.0 0 0 202.04 432.21
  C 202.03 429.95 198.98 429.82 196.24 429.00
  C 191.78 427.67 191.92 421.67 196.12 420.17
  Q 200.38 418.65 204.31 421.07
  A 0.94 0.93 38.6 0 1 204.48 422.53
  L 203.50 423.51
  A 0.87 0.86 -48.7 0 1 202.36 423.59
  Q 200.51 422.19 197.73 422.74
  A 1.70 1.70 0.0 0 0 196.35 424.52
  Q 196.42 425.64 197.31 425.93
  Q 197.74 426.07 202.52 427.45
  C 207.02 428.74 206.37 435.57 201.89 436.84
  Q 196.79 438.29 192.91 434.87
  A 0.99 0.99 0.0 0 1 192.87 433.42
  L 194.06 432.22
  A 0.67 0.66 -41.8 0 1 195.05 432.27
  Z"
/>
<path fill="#44a3b4" d="
  M 120.85 428.76
  C 120.66 424.30 122.56 420.61 127.24 419.79
  Q 132.75 418.83 135.22 423.00
  A 0.84 0.83 60.0 0 1 134.92 424.16
  L 133.44 424.98
  A 0.75 0.74 61.4 0 1 132.41 424.66
  Q 130.87 421.72 127.06 422.90
  C 124.69 423.65 124.28 426.45 124.38 428.61
  C 124.47 430.77 125.11 433.53 127.54 434.07
  Q 131.44 434.92 132.72 431.86
  A 0.75 0.74 -66.3 0 1 133.72 431.46
  L 135.26 432.14
  A 0.84 0.83 -65.0 0 1 135.67 433.27
  Q 133.56 437.64 127.99 437.15
  C 123.26 436.74 121.04 433.23 120.85 428.76
  Z"
/>
<path fill="#44a3b4" d="
  M 153.4584 430.0302
  A 7.23 7.23 0.0 0 1 146.1282 437.1585
  L 144.7883 437.1398
  A 7.23 7.23 0.0 0 1 137.6600 429.8096
  L 137.7016 426.8298
  A 7.23 7.23 0.0 0 1 145.0318 419.7015
  L 146.3717 419.7202
  A 7.23 7.23 0.0 0 1 153.5000 427.0504
  L 153.4584 430.0302
  Z
  M 145.5800 422.4100
  A 6.02 4.62 -90.0 0 0 140.9600 428.4300
  A 6.02 4.62 -90.0 0 0 145.5800 434.4500
  A 6.02 4.62 -90.0 0 0 150.2000 428.4300
  A 6.02 4.62 -90.0 0 0 145.5800 422.4100
  Z"
/>
<path fill="#44a3b4" d="
  M 164.08 434.22
  Q 165.11 434.22 165.65 434.02
  A 3.05 3.04 80.8 0 0 167.64 431.25
  Q 167.77 426.24 167.69 420.33
  A 0.49 0.48 -0.6 0 1 168.18 419.84
  L 170.54 419.84
  A 0.53 0.53 0.0 0 1 171.07 420.37
  Q 171.06 424.01 171.06 428.01
  C 171.07 433.30 170.59 437.26 164.07 437.25
  C 157.56 437.25 157.08 433.29 157.10 428.00
  Q 157.11 424.00 157.11 420.36
  A 0.53 0.53 0.0 0 1 157.64 419.83
  L 160.00 419.83
  A 0.49 0.48 0.7 0 1 160.49 420.32
  Q 160.40 426.23 160.52 431.24
  A 3.05 3.04 -80.7 0 0 162.50 434.02
  Q 163.05 434.21 164.08 434.22
  Z"
/>
<path fill="#44a3b4" d="
  M 186.60 419.82
  L 189.29 419.82
  A 0.31 0.31 0.0 0 1 189.60 420.13
  L 189.60 436.64
  A 0.31 0.31 0.0 0 1 189.29 436.95
  L 185.95 436.95
  A 0.31 0.31 0.0 0 1 185.68 436.79
  L 179.13 425.44
  A 0.31 0.31 0.0 0 0 178.55 425.60
  L 178.55 436.63
  A 0.31 0.31 0.0 0 1 178.24 436.94
  L 175.54 436.94
  A 0.31 0.31 0.0 0 1 175.23 436.63
  L 175.23 420.13
  A 0.31 0.31 0.0 0 1 175.54 419.82
  L 179.13 419.82
  A 0.31 0.31 0.0 0 1 179.40 419.98
  L 185.71 430.91
  A 0.31 0.31 0.0 0 0 186.29 430.75
  L 186.29 420.13
  A 0.31 0.31 0.0 0 1 186.60 419.82
  Z"
/>
<path fill="#44a3b4" d="
  M 212.51 426.67
  L 218.72 426.67
  A 0.39 0.39 0.0 0 1 219.11 427.06
  L 219.11 429.12
  A 0.39 0.39 0.0 0 1 218.72 429.51
  L 212.51 429.51
  A 0.39 0.39 0.0 0 0 212.12 429.90
  L 212.12 433.75
  A 0.39 0.39 0.0 0 0 212.51 434.14
  L 219.93 434.14
  A 0.39 0.39 0.0 0 1 220.32 434.53
  L 220.32 436.60
  A 0.39 0.39 0.0 0 1 219.93 436.99
  L 209.10 436.99
  A 0.39 0.39 0.0 0 1 208.71 436.60
  L 208.71 420.22
  A 0.39 0.39 0.0 0 1 209.10 419.83
  L 219.74 419.83
  A 0.39 0.39 0.0 0 1 220.13 420.22
  L 220.13 422.34
  A 0.39 0.39 0.0 0 1 219.74 422.73
  L 212.51 422.73
  A 0.39 0.39 0.0 0 0 212.12 423.12
  L 212.12 426.28
  A 0.39 0.39 0.0 0 0 212.51 426.67
  Z"
/>
<path fill="#44a3b4" d="
  M 223.93 419.82
  L 226.39 419.82
  A 0.48 0.48 0.0 0 1 226.87 420.30
  L 226.87 433.66
  A 0.48 0.48 0.0 0 0 227.35 434.14
  L 234.14 434.14
  A 0.48 0.48 0.0 0 1 234.62 434.62
  L 234.62 436.50
  A 0.48 0.48 0.0 0 1 234.14 436.98
  L 223.93 436.98
  A 0.48 0.48 0.0 0 1 223.45 436.50
  L 223.45 420.30
  A 0.48 0.48 0.0 0 1 223.93 419.82
  Z"
/>
<rect fill="#44a3b4" x="237.43" y="419.82" width="3.46" height="17.18" rx="0.43"/>
<path fill="#44a3b4" d="
  M 255.78 430.64
  A 0.28 0.28 0.0 0 0 256.30 430.49
  L 256.29 420.24
  A 0.45 0.44 -0.7 0 1 256.73 419.80
  L 259.14 419.78
  A 0.46 0.46 0.0 0 1 259.61 420.25
  L 259.61 436.47
  A 0.52 0.52 0.0 0 1 259.09 436.99
  L 256.46 436.98
  A 0.87 0.86 74.1 0 1 255.75 436.58
  L 249.00 425.65
  A 0.25 0.25 0.0 0 0 248.53 425.78
  L 248.55 436.48
  A 0.49 0.48 90.0 0 1 248.07 436.97
  L 245.71 436.99
  A 0.49 0.49 0.0 0 1 245.20 436.50
  L 245.20 420.29
  A 0.51 0.51 0.0 0 1 245.71 419.79
  L 248.50 419.80
  A 1.01 0.99 -15.6 0 1 249.35 420.27
  L 255.78 430.64
  Z"
/>
<path fill="#44a3b4" d="
  M 274.34 435.00
  Q 271.91 438.34 267.60 436.79
  C 262.62 435.00 261.95 427.01 264.43 422.98
  C 267.00 418.82 275.06 418.27 277.54 422.69
  A 0.70 0.70 0.0 0 1 277.28 423.65
  L 275.67 424.58
  A 0.70 0.69 -29.5 0 1 274.71 424.32
  Q 273.74 422.59 271.24 422.58
  C 266.60 422.56 266.26 427.04 266.80 430.64
  C 267.55 435.63 274.98 435.45 274.44 430.89
  A 0.66 0.65 -3.5 0 0 273.79 430.32
  L 271.02 430.32
  A 0.58 0.58 0.0 0 1 270.44 429.74
  L 270.44 428.11
  A 0.60 0.59 -0.0 0 1 271.04 427.52
  L 277.36 427.52
  A 0.56 0.56 0.0 0 1 277.92 428.08
  L 277.92 436.47
  A 0.53 0.53 0.0 0 1 277.39 437.00
  L 275.18 437.00
  A 0.52 0.52 0.0 0 1 274.66 436.48
  L 274.66 435.11
  A 0.18 0.18 0.0 0 0 274.34 435.00
  Z"
/>
<path fill="#44a3b4" d="
  M 290.12 428.61
  C 290.21 430.77 290.86 433.53 293.29 434.06
  Q 297.19 434.91 298.46 431.84
  A 0.75 0.74 -66.4 0 1 299.46 431.44
  L 301.00 432.12
  A 0.84 0.83 -65.1 0 1 301.41 433.25
  Q 299.31 437.62 293.74 437.14
  C 289.01 436.74 286.79 433.24 286.59 428.77
  C 286.39 424.30 288.29 420.61 292.97 419.79
  Q 298.47 418.82 300.95 422.98
  A 0.84 0.83 59.9 0 1 300.64 424.15
  L 299.17 424.96
  A 0.75 0.74 61.3 0 1 298.14 424.65
  Q 296.60 421.71 292.79 422.90
  C 290.42 423.65 290.02 426.45 290.12 428.61
  Z"
/>
<path fill="#44a3b4" d="
  M 308.02 422.72
  A 0.38 0.37 -0.0 0 0 307.64 423.09
  L 307.60 426.31
  A 0.36 0.35 0.7 0 0 307.96 426.67
  L 314.18 426.66
  A 0.46 0.46 0.0 0 1 314.64 427.13
  L 314.60 429.04
  A 0.49 0.49 0.0 0 1 314.12 429.52
  L 307.96 429.49
  A 0.32 0.32 0.0 0 0 307.64 429.81
  L 307.62 433.80
  A 0.36 0.36 0.0 0 0 307.98 434.16
  L 315.40 434.12
  A 0.43 0.43 0.0 0 1 315.83 434.54
  L 315.84 436.44
  A 0.52 0.52 0.0 0 1 315.32 436.97
  L 304.78 437.00
  A 0.58 0.57 90.0 0 1 304.21 436.42
  L 304.21 420.45
  A 0.62 0.61 -89.6 0 1 304.83 419.83
  L 315.13 419.84
  A 0.51 0.51 0.0 0 1 315.64 420.36
  L 315.63 422.29
  A 0.46 0.45 -88.8 0 1 315.17 422.75
  L 308.02 422.72
  Z"
/>
<path fill="#44a3b4" d="
  M 329.53 430.63
  A 0.28 0.28 0.0 0 0 330.04 430.48
  L 330.04 420.26
  A 0.45 0.44 -0.6 0 1 330.48 419.82
  L 332.89 419.81
  A 0.46 0.46 0.0 0 1 333.35 420.27
  L 333.33 436.44
  A 0.52 0.52 0.0 0 1 332.81 436.96
  L 330.20 436.95
  A 0.87 0.86 74.2 0 1 329.49 436.55
  L 322.77 425.65
  A 0.25 0.25 0.0 0 0 322.31 425.78
  L 322.32 436.44
  A 0.49 0.48 -90.0 0 1 321.84 436.93
  L 319.48 436.94
  A 0.49 0.49 0.0 0 1 318.98 436.45
  L 319.00 420.31
  A 0.51 0.51 0.0 0 1 319.51 419.81
  L 322.28 419.82
  A 1.00 0.99 -15.6 0 1 323.13 420.29
  L 329.53 430.63
  Z"
/>
<path fill="#44a3b4" d="
  M 342.86 419.84
  Q 348.99 419.84 349.03 419.84
  A 0.49 0.49 0.0 0 1 349.54 420.34
  L 349.51 422.28
  A 0.47 0.47 0.0 0 1 349.04 422.74
  L 345.06 422.74
  A 0.48 0.48 0.0 0 0 344.58 423.22
  L 344.58 436.32
  A 0.66 0.65 -0.5 0 1 343.94 436.97
  Q 343.63 436.98 342.87 436.98
  Q 342.10 436.98 341.80 436.97
  A 0.66 0.65 0.5 0 1 341.15 436.32
  L 341.15 423.22
  A 0.48 0.48 0.0 0 0 340.66 422.74
  L 336.68 422.74
  A 0.47 0.47 0.0 0 1 336.21 422.28
  L 336.18 420.34
  A 0.49 0.49 0.0 0 1 336.69 419.84
  Q 336.73 419.85 342.86 419.84
  Z"
/>
<path fill="#44a3b4" d="
  M 355.80 422.72
  A 0.38 0.37 0.0 0 0 355.42 423.09
  L 355.37 426.31
  A 0.36 0.35 0.8 0 0 355.73 426.67
  L 361.95 426.67
  A 0.46 0.46 0.0 0 1 362.41 427.14
  L 362.37 429.05
  A 0.49 0.49 0.0 0 1 361.88 429.53
  L 355.72 429.49
  A 0.32 0.32 0.0 0 0 355.40 429.81
  L 355.38 433.79
  A 0.36 0.36 0.0 0 0 355.74 434.15
  L 363.15 434.13
  A 0.43 0.43 0.0 0 1 363.58 434.55
  L 363.59 436.45
  A 0.52 0.52 0.0 0 1 363.07 436.98
  L 352.54 436.99
  A 0.58 0.57 -90.0 0 1 351.97 436.41
  L 351.99 420.45
  A 0.62 0.61 -89.5 0 1 352.61 419.83
  L 362.90 419.85
  A 0.51 0.51 0.0 0 1 363.41 420.37
  L 363.40 422.31
  A 0.46 0.45 -88.7 0 1 362.94 422.76
  L 355.80 422.72
  Z"
/>
<path fill="#44a3b4" d="
  M 376.32 428.90
  Q 378.38 431.45 379.62 436.66
  A 0.27 0.27 0.0 0 1 379.36 436.99
  L 376.68 436.99
  A 0.52 0.50 80.3 0 1 376.20 436.64
  L 374.26 431.02
  A 0.42 0.38 -78.7 0 0 374.16 430.85
  Q 373.13 429.65 370.77 429.81
  A 0.70 0.70 0.0 0 0 370.12 430.51
  L 370.12 436.54
  A 0.46 0.46 0.0 0 1 369.66 437.00
  L 367.20 437.00
  A 0.50 0.49 0.0 0 1 366.70 436.51
  L 366.70 420.25
  A 0.38 0.38 0.0 0 1 367.07 419.87
  Q 371.52 419.75 374.74 419.98
  C 379.46 420.33 380.60 426.46 376.50 428.19
  A 0.46 0.45 -31.2 0 0 376.32 428.90
  Z
  M 370.12 422.91
  L 370.12 426.83
  A 0.33 0.33 0.0 0 0 370.45 427.16
  L 373.38 427.16
  A 2.20 1.94 -0.0 0 0 375.58 425.22
  L 375.58 424.52
  A 2.20 1.94 0.0 0 0 373.38 422.58
  L 370.45 422.58
  A 0.33 0.33 0.0 0 0 370.12 422.91
  Z"
/>
<ellipse fill="#ffffff" cx="0.00" cy="0.00" transform="translate(145.58,428.43) rotate(-90.0)" rx="6.02" ry="4.62"/>
<path fill="#ffffff" d="
  M 370.12 422.91
  A 0.33 0.33 0.0 0 1 370.45 422.58
  L 373.38 422.58
  A 2.20 1.94 0.0 0 1 375.58 424.52
  L 375.58 425.22
  A 2.20 1.94 0.0 0 1 373.38 427.16
  L 370.45 427.16
  A 0.33 0.33 0.0 0 1 370.12 426.83
  L 370.12 422.91
  Z"
/>
</svg>
